<svg version="1.1" id="Layer_1" xmlns="http://www.w3.org/2000/svg" xmlns:xlink="http://www.w3.org/1999/xlink" x="0px" y="0px"
	 width="100%" viewBox="0 0 2176 1249" enable-background="new 0 0 2176 1249" xml:space="preserve">
<path fill="#F8F8F8" opacity="1.000000" stroke="none" 
	d="
M1457.000000,1250.000000 
	C971.333496,1250.000000 486.166962,1250.000000 1.000325,1250.000000 
	C1.000217,833.666931 1.000217,417.333862 1.000108,1.000605 
	C726.332825,1.000403 1451.665649,1.000403 2176.999023,1.000202 
	C2176.999268,417.332733 2176.999268,833.665466 2176.999512,1249.999023 
	C1937.166626,1250.000000 1697.333374,1250.000000 1457.000000,1250.000000 
M546.500000,73.999527 
	C394.340424,73.999527 242.180817,73.999435 90.021233,73.999672 
	C76.141365,73.999695 70.999710,79.105072 70.999702,92.887848 
	C70.999481,416.707977 70.999504,740.528137 70.999535,1064.348267 
	C70.999535,1103.513306 71.053726,1142.678589 70.952881,1181.843384 
	C70.933250,1189.466187 73.638184,1195.028687 80.858879,1198.108887 
	C81.741310,1198.485352 82.682259,1199.464233 82.977097,1200.366089 
	C86.605080,1211.464966 90.037186,1214.000122 101.756592,1214.000122 
	C319.081085,1214.000366 536.405640,1213.932007 753.729858,1214.171143 
	C766.659241,1214.185425 773.172913,1207.152344 773.166016,1194.860718 
	C772.961731,832.542236 773.000366,470.223694 773.000305,107.905113 
	C773.000305,106.738495 773.008850,105.571793 772.998047,104.405273 
	C772.936646,97.733490 769.747131,93.110275 763.858948,90.115608 
	C762.722473,89.537628 761.367981,88.486305 761.032715,87.375961 
	C757.944092,77.146385 753.819824,74.000809 742.992065,74.000496 
	C677.828064,73.998604 612.664001,73.999542 546.500000,73.999527 
z"/>
<path fill="#000000" opacity="1.000000" stroke="none" 
	d="
M547.000000,73.999527 
	C612.664001,73.999542 677.828064,73.998604 742.992065,74.000496 
	C753.819824,74.000809 757.944092,77.146385 761.032715,87.375961 
	C761.367981,88.486305 762.722473,89.537628 763.858948,90.115608 
	C769.747131,93.110275 772.936646,97.733490 772.998047,104.405273 
	C773.008850,105.571793 773.000305,106.738495 773.000305,107.905113 
	C773.000366,470.223694 772.961731,832.542236 773.166016,1194.860718 
	C773.172913,1207.152344 766.659241,1214.185425 753.729858,1214.171143 
	C536.405640,1213.932007 319.081085,1214.000366 101.756592,1214.000122 
	C90.037186,1214.000122 86.605080,1211.464966 82.977097,1200.366089 
	C82.682259,1199.464233 81.741310,1198.485352 80.858879,1198.108887 
	C73.638184,1195.028687 70.933250,1189.466187 70.952881,1181.843384 
	C71.053726,1142.678589 70.999535,1103.513306 70.999535,1064.348267 
	C70.999504,740.528137 70.999481,416.707977 70.999702,92.887848 
	C70.999710,79.105072 76.141365,73.999695 90.021233,73.999672 
	C242.180817,73.999435 394.340424,73.999527 547.000000,73.999527 
M229.500000,76.999153 
	C183.000031,76.999153 136.500046,76.998940 90.000076,76.999298 
	C77.708237,76.999397 73.999260,80.737488 73.999252,93.125313 
	C73.999138,455.458466 73.999123,817.791626 73.999321,1180.124756 
	C73.999329,1192.156616 77.812233,1196.000244 89.750206,1196.000244 
	C307.250092,1196.000610 524.750000,1196.000732 742.249878,1196.000366 
	C754.187988,1196.000366 758.000549,1192.156982 758.000549,1180.124634 
	C758.000793,817.624817 758.000916,455.124969 758.000488,92.625130 
	C758.000488,80.947403 754.084839,76.999626 742.499756,76.999588 
	C571.833191,76.998962 401.166595,76.999153 229.500000,76.999153 
z"/>
<path fill="#F2E9ED" opacity="1.000000" stroke="none" 
	d="
M230.000000,76.999153 
	C401.166595,76.999153 571.833191,76.998962 742.499756,76.999588 
	C754.084839,76.999626 758.000488,80.947403 758.000488,92.625130 
	C758.000916,455.124969 758.000793,817.624817 758.000549,1180.124634 
	C758.000549,1192.156982 754.187988,1196.000366 742.249878,1196.000366 
	C524.750000,1196.000732 307.250092,1196.000610 89.750206,1196.000244 
	C77.812233,1196.000244 73.999329,1192.156616 73.999321,1180.124756 
	C73.999123,817.791626 73.999138,455.458466 73.999252,93.125313 
	C73.999260,80.737488 77.708237,76.999397 90.000076,76.999298 
	C136.500046,76.998940 183.000031,76.999153 230.000000,76.999153 
M710.842590,123.305771 
	C706.813660,117.226234 701.252747,114.904243 693.889465,114.908813 
	C505.990021,115.025467 318.090454,115.000450 130.190933,115.001625 
	C117.404091,115.001701 112.001831,120.409393 112.001610,133.208099 
	C112.000053,220.827927 112.067764,308.447906 111.887199,396.067322 
	C111.870865,403.988495 114.158890,410.006958 120.944038,414.926605 
	C124.642265,419.412811 129.741013,419.772614 135.004791,419.772369 
	C322.494110,419.763580 509.983398,419.766602 697.472717,419.765442 
	C711.216370,419.765350 716.765503,414.163391 716.765686,400.297913 
	C716.766907,313.136200 716.765442,225.974518 716.762146,138.812820 
	C716.762085,137.146744 717.230469,135.260010 716.613098,133.858215 
	C715.091736,130.404236 713.064758,127.172966 710.842590,123.305771 
M682.577576,897.911499 
	C681.842346,896.607361 681.137817,895.284851 680.367493,894.001770 
	C658.974609,858.370728 608.081787,854.898071 582.280029,887.392029 
	C568.437927,904.824219 565.938293,924.438293 572.122192,945.377014 
	C579.749146,971.201477 596.782227,987.199768 623.611023,990.450439 
	C648.483704,993.464172 668.402466,983.397156 681.678284,962.140076 
	C694.579773,941.482422 692.250977,919.961609 682.577576,897.911499 
M636.005798,1000.330322 
	C607.986511,997.890808 583.459167,1012.434998 573.297180,1037.570312 
	C566.404053,1054.620239 568.268616,1071.504150 574.778870,1088.112671 
	C587.032349,1119.372681 622.631042,1134.318359 653.575623,1121.376831 
	C678.808105,1110.824219 693.183472,1085.690552 689.972900,1057.740356 
	C686.425354,1026.856812 666.317383,1005.178101 636.005798,1000.330322 
M684.797546,767.733337 
	C684.177490,766.370850 683.588745,764.993164 682.932800,763.648193 
	C663.684448,724.178833 609.416077,718.145386 582.174927,752.529419 
	C568.347839,769.982117 565.995361,789.613647 572.163147,810.540710 
	C579.278687,834.682983 594.893066,850.385437 619.835083,854.865295 
	C644.974670,859.380737 665.531189,850.405212 680.137573,829.512512 
	C693.526550,810.361206 692.759705,789.573792 684.797546,767.733337 
M581.672485,560.834106 
	C600.886292,587.335266 636.714539,593.943054 663.772949,575.975891 
	C685.827454,561.331360 694.968689,536.026001 687.913147,507.873718 
	C681.590820,482.646729 665.857178,466.295837 640.155151,461.158173 
	C615.545654,456.238922 591.312195,466.810608 578.504211,487.696411 
	C563.426147,512.283997 567.147278,536.573608 581.672485,560.834106 
M313.107361,1123.415771 
	C325.796387,1127.262573 338.390228,1126.932861 350.848511,1122.433594 
	C381.577148,1111.335693 396.797119,1079.848633 387.612366,1046.454102 
	C380.129333,1019.246765 358.036438,1000.860107 331.813721,1000.015930 
	C292.953827,998.764954 263.902100,1031.551514 269.925720,1070.129761 
	C273.933441,1095.797241 286.958344,1114.484009 313.107361,1123.415771 
M582.088989,617.589355 
	C568.418213,635.173523 566.251038,654.654846 572.134155,675.663696 
	C582.109314,711.285156 619.109924,730.236816 652.777100,716.760071 
	C678.029968,706.651550 697.508667,678.399048 687.998779,642.825012 
	C681.503906,618.529053 666.787048,602.126526 642.075073,596.576904 
	C618.467468,591.275330 598.428772,598.703979 582.088989,617.589355 
M385.874908,635.662109 
	C385.258484,634.118469 384.683044,632.556946 384.019714,631.033691 
	C365.948059,589.537659 309.930634,582.238770 281.952881,617.821655 
	C268.316071,635.165283 266.002686,654.681152 272.128387,675.409790 
	C279.758820,701.230408 296.808350,717.220032 323.634796,720.457703 
	C348.503387,723.459045 368.309052,713.321533 381.713806,692.141663 
	C392.846924,674.551025 392.537598,655.623962 385.874908,635.662109 
M416.864441,766.347717 
	C410.448822,780.929504 410.963165,795.739990 415.173431,810.760010 
	C425.108795,846.203735 461.771698,865.073975 495.394562,851.906006 
	C521.753235,841.583069 540.080566,812.434021 531.119995,778.223450 
	C524.121948,751.505798 504.802734,733.173035 478.147278,730.275330 
	C453.966370,727.646545 428.587738,740.217346 416.864441,766.347717 
M171.107468,1123.415771 
	C183.796387,1127.262573 196.390198,1126.932983 208.848373,1122.433716 
	C239.577255,1111.335571 254.796997,1079.848755 245.612396,1046.454102 
	C238.129517,1019.246887 216.036560,1000.860107 189.813690,1000.015930 
	C150.953857,998.764893 121.901970,1031.551758 127.925735,1070.129883 
	C131.933548,1095.797241 144.958374,1114.484131 171.107468,1123.415771 
M419.102112,626.593750 
	C411.642975,640.794434 410.498566,655.603699 413.971039,671.177979 
	C422.497162,709.418091 459.772705,730.567444 495.155151,716.993713 
	C519.819397,707.531677 540.764099,679.679565 530.989075,642.490967 
	C524.159546,616.508118 505.322723,598.819702 478.882141,595.386414 
	C456.420319,592.469727 432.001221,603.279236 419.102112,626.593750 
M147.376450,879.877563 
	C129.343094,896.739197 123.657097,917.223755 128.999680,941.171997 
	C135.411346,969.912537 158.247467,990.118774 185.695847,990.984253 
	C225.984512,992.254639 254.775009,957.671326 246.999374,917.346008 
	C237.620758,868.707458 186.184937,849.019165 147.376450,879.877563 
M378.515381,967.011475 
	C390.709595,950.385864 392.913910,932.096436 387.939606,912.445435 
	C379.211456,877.964783 346.460205,857.969482 313.059570,867.128479 
	C282.072845,875.625549 262.568237,907.337280 270.944611,941.014648 
	C277.139984,965.923218 291.352356,983.214355 316.715118,989.215271 
	C341.406769,995.057434 361.931763,986.993164 378.515381,967.011475 
M505.366699,1116.877930 
	C529.051392,1101.119385 538.118652,1076.522705 530.928467,1047.536865 
	C522.368164,1013.027771 489.579559,993.014282 456.147125,1002.109802 
	C424.967590,1010.592590 406.063477,1042.410645 413.834717,1075.943848 
	C423.740906,1118.689575 467.326874,1138.924683 505.366699,1116.877930 
M354.059326,735.446716 
	C327.004669,724.034119 298.218475,731.141235 281.124908,753.883362 
	C266.712250,773.058716 266.177887,794.080566 273.913483,815.964844 
	C286.488281,851.539124 328.530914,867.081909 360.865723,847.685120 
	C380.739868,835.763245 391.196472,817.641174 390.302795,794.485535 
	C389.310455,768.773376 379.029572,747.812805 354.059326,735.446716 
M533.531250,931.443665 
	C532.275391,923.764465 531.866821,915.825439 529.606201,908.454407 
	C522.580017,885.544922 507.097412,870.803223 483.535980,866.243896 
	C459.379822,861.569580 439.031372,869.509338 424.044281,889.101135 
	C410.540222,906.754272 409.315582,926.521606 415.728363,947.366699 
	C424.934845,977.292847 452.730011,994.980835 483.553741,990.118958 
	C509.724884,985.990906 532.714539,963.070129 533.531250,931.443665 
M182.742065,730.068787 
	C167.209961,731.473572 153.741257,737.453430 143.206757,749.013672 
	C125.756828,768.162781 123.458061,790.304382 131.235031,814.195435 
	C143.084259,850.596680 185.029739,867.022827 218.067032,848.197632 
	C243.178726,833.888489 253.819199,806.048096 245.544205,776.304199 
	C237.308304,746.700806 214.371994,729.544128 182.742065,730.068787 
M132.446686,629.940674 
	C125.539650,644.900330 125.799721,660.170715 130.160355,675.738159 
	C140.406937,712.318237 179.099533,731.082031 213.133270,715.757263 
	C237.067444,704.980164 255.108337,677.590088 246.043411,642.753967 
	C239.196609,616.442017 219.594772,598.379883 193.172195,595.215515 
	C168.613251,592.274231 144.382446,605.947571 132.446686,629.940674 
M493.523926,463.964844 
	C467.326538,454.604095 440.180908,462.339478 423.923859,484.155212 
	C411.119324,501.337982 409.431610,520.381653 415.119873,540.610840 
	C422.274139,566.053711 443.447418,584.060913 468.788849,585.903748 
	C494.585205,587.779663 518.537781,573.036682 528.823425,549.501831 
	C540.318848,523.199036 530.509277,478.457458 493.523926,463.964844 
M298.071075,468.588470 
	C273.848053,483.844696 264.474365,509.727386 271.523102,538.332642 
	C278.330444,565.958313 301.017120,584.799072 327.433594,585.909546 
	C367.694061,587.601929 396.677979,552.911011 389.027588,512.615601 
	C380.615417,468.307861 337.555023,447.129211 298.071075,468.588470 
M219.765091,469.740875 
	C191.949295,452.510315 157.797882,458.572205 138.730011,484.410065 
	C125.241684,502.687469 124.411140,522.752258 131.099731,543.780945 
	C145.074936,587.718384 200.420242,600.374634 232.284348,567.090027 
	C260.391113,537.730225 248.605484,487.833069 219.765091,469.740875 
z"/>
<path fill="#000000" opacity="1.000000" stroke="none" 
	d="
M120.853165,414.241516 
	C114.158890,410.006958 111.870865,403.988495 111.887199,396.067322 
	C112.067764,308.447906 112.000053,220.827927 112.001610,133.208099 
	C112.001831,120.409393 117.404091,115.001701 130.190933,115.001625 
	C318.090454,115.000450 505.990021,115.025467 693.889465,114.908813 
	C701.252747,114.904243 706.813660,117.226234 710.985718,124.004929 
	C711.432678,127.667915 712.000366,130.631607 712.002014,133.595596 
	C712.049316,221.070389 712.040649,308.545197 712.040100,396.020020 
	C712.040039,409.817871 706.833191,415.040009 693.075195,415.040039 
	C506.795502,415.040497 320.515778,415.045898 134.236084,415.006958 
	C129.775070,415.006012 125.314140,414.507782 120.853165,414.241516 
M119.000511,232.500000 
	C119.000526,287.324829 118.999138,342.149628 119.002007,396.974457 
	C119.002457,405.572632 121.399796,407.997589 129.912888,407.997711 
	C318.050751,408.000000 506.188599,408.000183 694.326477,407.996887 
	C702.512268,407.996735 704.996948,405.488495 704.997253,397.234985 
	C705.000916,309.081818 705.000916,220.928650 704.997375,132.775482 
	C704.997009,124.516258 702.513000,122.003288 694.336975,122.003143 
	C506.032471,121.999825 317.727936,121.999519 129.423431,122.004341 
	C121.577423,122.004547 119.006004,124.604248 119.004044,132.515152 
	C118.995834,165.510101 119.000542,198.505051 119.000511,232.500000 
z"/>
<path fill="#8B8A8B" opacity="1.000000" stroke="none" 
	d="
M120.898605,414.584045 
	C125.314140,414.507782 129.775070,415.006012 134.236084,415.006958 
	C320.515778,415.045898 506.795502,415.040497 693.075195,415.040039 
	C706.833191,415.040009 712.040039,409.817871 712.040100,396.020020 
	C712.040649,308.545197 712.049316,221.070389 712.002014,133.595596 
	C712.000366,130.631607 711.432678,127.667915 711.184937,124.278122 
	C713.064758,127.172966 715.091736,130.404236 716.613098,133.858215 
	C717.230469,135.260010 716.762085,137.146744 716.762146,138.812820 
	C716.765442,225.974518 716.766907,313.136200 716.765686,400.297913 
	C716.765503,414.163391 711.216370,419.765350 697.472717,419.765442 
	C509.983398,419.766602 322.494110,419.763580 135.004791,419.772369 
	C129.741013,419.772614 124.642265,419.412811 120.898605,414.584045 
z"/>
<path fill="#090909" opacity="1.000000" stroke="none" 
	d="
M682.744324,898.245850 
	C692.250977,919.961609 694.579773,941.482422 681.678284,962.140076 
	C668.402466,983.397156 648.483704,993.464172 623.611023,990.450439 
	C596.782227,987.199768 579.749146,971.201477 572.122192,945.377014 
	C565.938293,924.438293 568.437927,904.824219 582.280029,887.392029 
	C608.081787,854.898071 658.974609,858.370728 680.367493,894.001770 
	C681.137817,895.284851 681.842346,896.607361 682.744324,898.245850 
M640.882080,869.287048 
	C634.104187,869.126465 627.219055,868.113220 620.566711,868.950439 
	C588.821289,872.945923 567.319153,903.528137 573.086853,935.845154 
	C578.645508,966.990540 610.694946,987.829102 641.697876,980.456177 
	C667.669739,974.279785 685.891052,951.555725 685.968567,925.245544 
	C686.046875,898.656860 667.970825,875.916992 640.882080,869.287048 
z"/>
<path fill="#090909" opacity="1.000000" stroke="none" 
	d="
M636.446655,1000.419250 
	C666.317383,1005.178101 686.425354,1026.856812 689.972900,1057.740356 
	C693.183472,1085.690552 678.808105,1110.824219 653.575623,1121.376831 
	C622.631042,1134.318359 587.032349,1119.372681 574.778870,1088.112671 
	C568.268616,1071.504150 566.404053,1054.620239 573.297180,1037.570312 
	C583.459167,1012.434998 607.986511,997.890808 636.446655,1000.419250 
M613.890381,1114.908936 
	C655.104187,1125.749756 691.043396,1090.907471 685.297852,1051.948608 
	C681.018127,1022.929199 655.062927,1001.316162 625.979370,1003.075806 
	C595.939819,1004.893372 572.236267,1029.660767 572.031372,1059.444946 
	C571.856201,1084.907837 587.618530,1106.112183 613.890381,1114.908936 
z"/>
<path fill="#090909" opacity="1.000000" stroke="none" 
	d="
M684.915527,768.102539 
	C692.759705,789.573792 693.526550,810.361206 680.137573,829.512512 
	C665.531189,850.405212 644.974670,859.380737 619.835083,854.865295 
	C594.893066,850.385437 579.278687,834.682983 572.163147,810.540710 
	C565.995361,789.613647 568.347839,769.982117 582.174927,752.529419 
	C609.416077,718.145386 663.684448,724.178833 682.932800,763.648193 
	C683.588745,764.993164 684.177490,766.370850 684.915527,768.102539 
M652.249451,738.054382 
	C609.747498,720.733032 566.407471,753.480469 572.902161,798.359314 
	C576.168945,820.933655 589.313904,836.431641 610.786621,843.766296 
	C632.319580,851.121521 652.148987,846.516235 668.522888,830.805725 
	C697.467834,803.033508 689.480774,756.860657 652.249451,738.054382 
z"/>
<path fill="#090909" opacity="1.000000" stroke="none" 
	d="
M581.441162,560.557861 
	C567.147278,536.573608 563.426147,512.283997 578.504211,487.696411 
	C591.312195,466.810608 615.545654,456.238922 640.155151,461.158173 
	C665.857178,466.295837 681.590820,482.646729 687.913147,507.873718 
	C694.968689,536.026001 685.827454,561.331360 663.772949,575.975891 
	C636.714539,593.943054 600.886292,587.335266 581.441162,560.557861 
M604.383972,571.292480 
	C614.918823,576.144226 625.826904,577.899536 637.429443,576.255371 
	C669.145691,571.760742 690.677856,541.498169 684.913818,509.160828 
	C679.360840,478.007538 647.295349,457.163696 616.284546,464.549103 
	C592.006897,470.331024 575.712708,488.945587 572.289307,514.809631 
	C569.388672,536.723450 582.114136,559.475647 604.383972,571.292480 
z"/>
<path fill="#0A0A0A" opacity="1.000000" stroke="none" 
	d="
M312.728516,1123.287842 
	C286.958344,1114.484009 273.933441,1095.797241 269.925720,1070.129761 
	C263.902100,1031.551514 292.953827,998.764954 331.813721,1000.015930 
	C358.036438,1000.860107 380.129333,1019.246765 387.612366,1046.454102 
	C396.797119,1079.848633 381.577148,1111.335693 350.848511,1122.433594 
	C338.390228,1126.932861 325.796387,1127.262573 312.728516,1123.287842 
M325.830811,1003.077881 
	C290.905548,1006.151428 267.541656,1035.471924 272.898865,1069.504639 
	C277.394928,1098.066772 303.738800,1118.846680 332.964691,1116.884155 
	C361.755493,1114.950928 385.155731,1090.773682 385.955261,1062.134033 
	C386.889740,1028.660034 361.016266,1002.843933 325.830811,1003.077881 
z"/>
<path fill="#090909" opacity="1.000000" stroke="none" 
	d="
M582.311096,617.310425 
	C598.428772,598.703979 618.467468,591.275330 642.075073,596.576904 
	C666.787048,602.126526 681.503906,618.529053 687.998779,642.825012 
	C697.508667,678.399048 678.029968,706.651550 652.777100,716.760071 
	C619.109924,730.236816 582.109314,711.285156 572.134155,675.663696 
	C566.251038,654.654846 568.418213,635.173523 582.311096,617.310425 
M670.524658,694.001038 
	C682.571472,680.396301 687.745605,664.717468 685.218872,646.545776 
	C680.806335,614.811829 650.456848,593.283569 618.121155,599.092102 
	C586.940063,604.693237 566.027283,636.764404 573.604858,667.751038 
	C578.819214,689.073792 592.134216,703.438477 613.123047,709.534729 
	C634.741882,715.813904 653.872375,710.205078 670.524658,694.001038 
z"/>
<path fill="#0A0A0A" opacity="1.000000" stroke="none" 
	d="
M385.969818,636.046936 
	C392.537598,655.623962 392.846924,674.551025 381.713806,692.141663 
	C368.309052,713.321533 348.503387,723.459045 323.634796,720.457703 
	C296.808350,717.220032 279.758820,701.230408 272.128387,675.409790 
	C266.002686,654.681152 268.316071,635.165283 281.952881,617.821655 
	C309.930634,582.238770 365.948059,589.537659 384.019714,631.033691 
	C384.683044,632.556946 385.258484,634.118469 385.969818,636.046936 
M333.106750,598.118774 
	C294.968506,596.993958 267.051575,627.627258 272.859009,664.228577 
	C277.913849,696.086792 308.718903,717.271057 340.605255,710.816956 
	C371.936523,704.475220 391.918671,672.627869 384.350708,641.557129 
	C379.245453,620.597412 361.286804,601.024902 333.106750,598.118774 
z"/>
<path fill="#0A0A0A" opacity="1.000000" stroke="none" 
	d="
M416.989502,765.987549 
	C428.587738,740.217346 453.966370,727.646545 478.147278,730.275330 
	C504.802734,733.173035 524.121948,751.505798 531.119995,778.223450 
	C540.080566,812.434021 521.753235,841.583069 495.394562,851.906006 
	C461.771698,865.073975 425.108795,846.203735 415.173431,810.760010 
	C410.963165,795.739990 410.448822,780.929504 416.989502,765.987549 
M495.303070,841.966064 
	C519.870728,830.000977 532.289917,806.585327 528.064880,780.195190 
	C523.540283,751.933899 497.499817,731.408203 468.315552,733.099426 
	C439.670563,734.759277 415.998596,758.937805 415.053528,787.501160 
	C413.652893,829.831238 455.116455,858.371277 495.303070,841.966064 
z"/>
<path fill="#0A0A0A" opacity="1.000000" stroke="none" 
	d="
M170.728607,1123.287842 
	C144.958374,1114.484131 131.933548,1095.797241 127.925735,1070.129883 
	C121.901970,1031.551758 150.953857,998.764893 189.813690,1000.015930 
	C216.036560,1000.860107 238.129517,1019.246887 245.612396,1046.454102 
	C254.796997,1079.848755 239.577255,1111.335571 208.848373,1122.433716 
	C196.390198,1126.932983 183.796387,1127.262573 170.728607,1123.287842 
M240.748917,1041.006592 
	C240.176392,1039.625000 239.635101,1038.229614 239.026779,1036.864014 
	C226.945297,1009.742981 196.222351,996.444092 168.198273,1006.197510 
	C140.646362,1015.786621 124.658447,1045.165161 131.663986,1073.330933 
	C139.542236,1105.005493 171.327347,1123.607788 202.570343,1114.828979 
	C233.776276,1106.060669 250.915573,1073.448853 240.748917,1041.006592 
z"/>
<path fill="#0A0A0A" opacity="1.000000" stroke="none" 
	d="
M419.284180,626.274048 
	C432.001221,603.279236 456.420319,592.469727 478.882141,595.386414 
	C505.322723,598.819702 524.159546,616.508118 530.989075,642.490967 
	C540.764099,679.679565 519.819397,707.531677 495.155151,716.993713 
	C459.772705,730.567444 422.497162,709.418091 413.971039,671.177979 
	C410.498566,655.603699 411.642975,640.794434 419.284180,626.274048 
M493.191132,707.897644 
	C494.702820,707.208557 496.240234,706.570435 497.722351,705.822632 
	C523.459656,692.837585 535.408997,662.499451 525.472656,635.399963 
	C515.519653,608.255066 486.629974,592.755005 458.791901,599.624023 
	C426.720886,607.537476 407.951416,640.116150 417.440186,671.399353 
	C427.084717,703.196106 460.689575,719.652161 493.191132,707.897644 
z"/>
<path fill="#0A0A0A" opacity="1.000000" stroke="none" 
	d="
M147.647217,879.648926 
	C186.184937,849.019165 237.620758,868.707458 246.999374,917.346008 
	C254.775009,957.671326 225.984512,992.254639 185.695847,990.984253 
	C158.247467,990.118774 135.411346,969.912537 128.999680,941.171997 
	C123.657097,917.223755 129.343094,896.739197 147.647217,879.648926 
M202.950134,870.263489 
	C194.483139,868.020630 185.987991,867.440125 177.260193,868.876282 
	C149.011078,873.524536 128.467133,899.412109 130.095490,928.600098 
	C131.692581,957.227539 155.850372,980.954773 184.406479,981.943054 
	C212.966904,982.931396 238.186142,963.018250 242.953445,935.714233 
	C248.059067,906.472473 232.023972,879.853638 202.950134,870.263489 
z"/>
<path fill="#0A0A0A" opacity="1.000000" stroke="none" 
	d="
M378.308990,967.302856 
	C361.931763,986.993164 341.406769,995.057434 316.715118,989.215271 
	C291.352356,983.214355 277.139984,965.923218 270.944611,941.014648 
	C262.568237,907.337280 282.072845,875.625549 313.059570,867.128479 
	C346.460205,857.969482 379.211456,877.964783 387.939606,912.445435 
	C392.913910,932.096436 390.709595,950.385864 378.308990,967.302856 
M272.988953,914.772339 
	C266.603149,954.693298 299.161316,987.436523 338.895111,981.053101 
	C367.085144,976.524231 387.634247,950.376160 385.896881,921.244995 
	C384.187958,892.591797 360.013062,868.974365 331.448517,868.052246 
	C303.045532,867.135254 280.414612,884.924011 272.988953,914.772339 
z"/>
<path fill="#0A0A0A" opacity="1.000000" stroke="none" 
	d="
M505.046814,1117.053467 
	C467.326874,1138.924683 423.740906,1118.689575 413.834717,1075.943848 
	C406.063477,1042.410645 424.967590,1010.592590 456.147125,1002.109802 
	C489.579559,993.014282 522.368164,1013.027771 530.928467,1047.536865 
	C538.118652,1076.522705 529.051392,1101.119385 505.046814,1117.053467 
M517.674438,1025.889648 
	C503.304810,1008.081970 484.869537,1000.411743 462.132965,1003.968994 
	C433.897858,1008.386536 413.359222,1034.616821 415.100891,1063.761353 
	C416.814178,1092.431030 441.007050,1116.257446 469.589874,1116.885986 
	C492.504608,1117.389893 510.449921,1107.739136 521.591309,1087.705811 
	C533.149780,1066.922485 531.371216,1046.199463 517.674438,1025.889648 
z"/>
<path fill="#0A0A0A" opacity="1.000000" stroke="none" 
	d="
M354.390076,735.627075 
	C379.029572,747.812805 389.310455,768.773376 390.302795,794.485535 
	C391.196472,817.641174 380.739868,835.763245 360.865723,847.685120 
	C328.530914,867.081909 286.488281,851.539124 273.913483,815.964844 
	C266.177887,794.080566 266.712250,773.058716 281.124908,753.883362 
	C298.218475,731.141235 327.004669,724.034119 354.390076,735.627075 
M272.592529,797.657410 
	C277.608368,830.800232 307.948151,852.318481 340.517639,845.832886 
	C372.417206,839.480713 392.414093,806.988464 383.995026,775.187988 
	C376.381378,746.429810 348.081451,728.749146 318.165894,734.060547 
	C289.279510,739.189209 269.366455,766.491943 272.592529,797.657410 
z"/>
<path fill="#0A0A0A" opacity="1.000000" stroke="none" 
	d="
M533.526001,931.892090 
	C532.714539,963.070129 509.724884,985.990906 483.553741,990.118958 
	C452.730011,994.980835 424.934845,977.292847 415.728363,947.366699 
	C409.315582,926.521606 410.540222,906.754272 424.044281,889.101135 
	C439.031372,869.509338 459.379822,861.569580 483.535980,866.243896 
	C507.097412,870.803223 522.580017,885.544922 529.606201,908.454407 
	C531.866821,915.825439 532.275391,923.764465 533.526001,931.892090 
M520.877441,954.269470 
	C527.842346,942.155090 530.387451,929.283264 528.126038,915.382324 
	C523.015259,883.966370 492.413757,862.935730 460.589661,869.147888 
	C429.368011,875.242432 408.778717,907.267822 416.679108,938.144348 
	C422.634735,961.420471 437.711151,976.296875 461.258209,980.740601 
	C486.339874,985.473938 506.207275,976.025818 520.877441,954.269470 
z"/>
<path fill="#0A0A0A" opacity="1.000000" stroke="none" 
	d="
M183.212143,730.049683 
	C214.371994,729.544128 237.308304,746.700806 245.544205,776.304199 
	C253.819199,806.048096 243.178726,833.888489 218.067032,848.197632 
	C185.029739,867.022827 143.084259,850.596680 131.235031,814.195435 
	C123.458061,790.304382 125.756828,768.162781 143.206757,749.013672 
	C153.741257,737.453430 167.209961,731.473572 183.212143,730.049683 
M148.511200,832.004517 
	C162.365570,844.099487 178.307465,849.021240 196.581131,846.100952 
	C225.107315,841.542236 245.794983,815.301758 243.887497,786.029602 
	C242.029007,757.509338 218.081589,734.101013 189.698364,733.060120 
	C165.541260,732.174255 143.935333,745.777405 134.550522,767.781433 
	C125.203423,789.697083 130.379257,814.258606 148.511200,832.004517 
z"/>
<path fill="#0A0A0A" opacity="1.000000" stroke="none" 
	d="
M132.627045,629.609863 
	C144.382446,605.947571 168.613251,592.274231 193.172195,595.215515 
	C219.594772,598.379883 239.196609,616.442017 246.043411,642.753967 
	C255.108337,677.590088 237.067444,704.980164 213.133270,715.757263 
	C179.099533,731.082031 140.406937,712.318237 130.160355,675.738159 
	C125.799721,660.170715 125.539650,644.900330 132.627045,629.609863 
M233.896576,687.322754 
	C242.356995,674.580933 245.585815,660.734497 243.134125,645.528809 
	C238.030502,613.875549 206.974731,592.627258 175.239212,599.210388 
	C144.125061,605.664612 123.876488,637.321472 131.627396,668.012573 
	C137.409439,690.907471 152.154907,705.687195 175.139526,710.559814 
	C199.008820,715.619934 218.635605,707.318787 233.896576,687.322754 
z"/>
<path fill="#0B0906" opacity="1.000000" stroke="none" 
	d="
M493.893036,464.082397 
	C530.509277,478.457458 540.318848,523.199036 528.823425,549.501831 
	C518.537781,573.036682 494.585205,587.779663 468.788849,585.903748 
	C443.447418,584.060913 422.274139,566.053711 415.119873,540.610840 
	C409.431610,520.381653 411.119324,501.337982 423.923859,484.155212 
	C440.180908,462.339478 467.326538,454.604095 493.893036,464.082397 
M501.269318,471.122711 
	C489.314117,464.266083 476.610291,461.614990 462.878937,463.815948 
	C431.035492,468.920044 409.892517,499.414337 416.151398,531.409119 
	C422.265137,562.662048 454.222107,583.214478 485.142609,575.313049 
	C508.414276,569.366089 523.297363,554.284729 527.737244,530.739807 
	C532.465698,505.664825 523.045532,485.783295 501.269318,471.122711 
z"/>
<path fill="#0B0906" opacity="1.000000" stroke="none" 
	d="
M298.370819,468.381622 
	C337.555023,447.129211 380.615417,468.307861 389.027588,512.615601 
	C396.677979,552.911011 367.694061,587.601929 327.433594,585.909546 
	C301.017120,584.799072 278.330444,565.958313 271.523102,538.332642 
	C264.474365,509.727386 273.848053,483.844696 298.370819,468.381622 
M273.914307,505.666412 
	C273.591492,513.739075 272.095398,521.970764 273.163727,529.854919 
	C276.501892,554.490784 296.713806,573.062927 322.781067,576.671265 
	C345.933655,579.876160 370.270203,566.176758 380.635071,544.104553 
	C391.075653,521.871094 385.655914,494.423218 367.713287,478.182220 
	C335.560181,449.078400 285.612335,464.019226 273.914307,505.666412 
z"/>
<path fill="#0B0906" opacity="1.000000" stroke="none" 
	d="
M220.073914,469.927063 
	C248.605484,487.833069 260.391113,537.730225 232.284348,567.090027 
	C200.420242,600.374634 145.074936,587.718384 131.099731,543.780945 
	C124.411140,522.752258 125.241684,502.687469 138.730011,484.410065 
	C157.797882,458.572205 191.949295,452.510315 220.073914,469.927063 
M232.201096,554.649658 
	C241.962921,541.415894 245.742386,526.750671 243.114990,510.415314 
	C238.530624,481.912842 212.256195,461.162689 183.029297,463.111481 
	C154.284195,465.028137 130.852219,489.212891 130.042877,517.800110 
	C129.342651,542.532837 143.847336,564.474487 166.640900,573.163208 
	C190.111511,582.110046 215.052567,575.239075 232.201096,554.649658 
z"/>
<path fill="#FFFFFF" opacity="1.000000" stroke="none" 
	d="
M119.000511,232.000000 
	C119.000542,198.505051 118.995834,165.510101 119.004044,132.515152 
	C119.006004,124.604248 121.577423,122.004547 129.423431,122.004341 
	C317.727936,121.999519 506.032471,121.999825 694.336975,122.003143 
	C702.513000,122.003288 704.997009,124.516258 704.997375,132.775482 
	C705.000916,220.928650 705.000916,309.081818 704.997253,397.234985 
	C704.996948,405.488495 702.512268,407.996735 694.326477,407.996887 
	C506.188599,408.000183 318.050751,408.000000 129.912888,407.997711 
	C121.399796,407.997589 119.002457,405.572632 119.002007,396.974457 
	C118.999138,342.149628 119.000526,287.324829 119.000511,232.000000 
z"/>
<path fill="#7F7F7F" opacity="1.000000" stroke="none" 
	d="
M641.285278,869.413818 
	C667.970825,875.916992 686.046875,898.656860 685.968567,925.245544 
	C685.891052,951.555725 667.669739,974.279785 641.697876,980.456177 
	C610.694946,987.829102 578.645508,966.990540 573.086853,935.845154 
	C567.319153,903.528137 588.821289,872.945923 620.566711,868.950439 
	C627.219055,868.113220 634.104187,869.126465 641.285278,869.413818 
M638.372925,931.019104 
	C638.872192,931.019043 639.448303,931.182739 639.857239,930.990540 
	C641.546265,930.196838 643.184570,929.295410 644.841492,928.433594 
	C643.240051,927.639954 641.705322,926.413330 640.021545,926.153870 
	C637.492065,925.764343 634.858215,926.052551 631.955872,926.052551 
	C631.955872,922.679077 632.290955,919.977112 631.831177,917.417908 
	C631.551819,915.862610 630.044983,914.527893 629.089600,913.094116 
	C628.153015,914.591980 626.690369,915.995483 626.400879,917.609436 
	C625.945496,920.148682 626.279846,922.829590 626.279846,926.051392 
	C623.662231,926.051392 621.486633,925.733582 619.456543,926.140808 
	C617.431396,926.547058 615.551941,927.679993 613.608643,928.494263 
	C615.453674,929.335876 617.227295,930.545898 619.162781,930.921326 
	C621.348633,931.345276 623.680054,931.019104 626.283447,931.019104 
	C626.283447,934.535767 625.969177,937.401123 626.414490,940.143127 
	C626.641052,941.538330 628.233765,942.711609 629.208923,943.985168 
	C630.124512,942.736084 631.641174,941.571655 631.831482,940.220337 
	C632.237366,937.337402 631.955688,934.357605 631.955688,931.019104 
	C634.196838,931.019104 635.825867,931.019104 638.372925,931.019104 
z"/>
<path fill="#808080" opacity="1.000000" stroke="none" 
	d="
M613.496582,1114.802734 
	C587.618530,1106.112183 571.856201,1084.907837 572.031372,1059.444946 
	C572.236267,1029.660767 595.939819,1004.893372 625.979370,1003.075806 
	C655.062927,1001.316162 681.018127,1022.929199 685.297852,1051.948608 
	C691.043396,1090.907471 655.104187,1125.749756 613.496582,1114.802734 
M620.784363,1067.170532 
	C620.122192,1067.170654 619.366821,1066.962280 618.815186,1067.209351 
	C617.058960,1067.995483 615.378662,1068.951172 613.669006,1069.841309 
	C615.358887,1070.746704 617.020325,1072.364624 618.743713,1072.433594 
	C626.015625,1072.724243 633.310547,1072.685059 640.585938,1072.439819 
	C642.038574,1072.390747 643.442871,1070.909180 644.869507,1070.088257 
	C643.441589,1069.117065 642.051880,1067.380981 640.579102,1067.307373 
	C634.304260,1066.993896 628.004822,1067.172119 620.784363,1067.170532 
M639.205933,1054.992310 
	C632.092163,1054.992554 624.974121,1054.865601 617.868347,1055.104370 
	C616.512451,1055.150024 615.205139,1056.640503 613.875427,1057.464355 
	C615.257141,1058.287354 616.617432,1059.776978 618.023987,1059.821899 
	C625.461060,1060.059814 632.914734,1060.078247 640.350098,1059.816040 
	C641.872253,1059.762329 643.340576,1058.184814 644.833679,1057.309692 
	C643.263855,1056.537354 641.694092,1055.764893 639.205933,1054.992310 
z"/>
<path fill="#7F7F7F" opacity="1.000000" stroke="none" 
	d="
M652.602051,738.194397 
	C689.480774,756.860657 697.467834,803.033508 668.522888,830.805725 
	C652.148987,846.516235 632.319580,851.121521 610.786621,843.766296 
	C589.313904,836.431641 576.168945,820.933655 572.902161,798.359314 
	C566.407471,753.480469 609.747498,720.733032 652.602051,738.194397 
M624.903687,791.052979 
	C623.358948,791.908020 621.814148,792.763123 620.269348,793.618103 
	C621.846191,794.418152 623.361328,795.701294 625.013367,795.912292 
	C627.959656,796.288574 631.014221,796.244324 633.971680,795.913513 
	C635.304871,795.764343 636.513733,794.503784 637.778992,793.747498 
	C636.448730,792.850037 635.206970,791.408325 633.768738,791.174255 
	C631.175476,790.752258 628.464600,791.053040 624.903687,791.052979 
z"/>
<path fill="#808080" opacity="1.000000" stroke="none" 
	d="
M604.043457,571.133789 
	C582.114136,559.475647 569.388672,536.723450 572.289307,514.809631 
	C575.712708,488.945587 592.006897,470.331024 616.284546,464.549103 
	C647.295349,457.163696 679.360840,478.007538 684.913818,509.160828 
	C690.677856,541.498169 669.145691,571.760742 637.429443,576.255371 
	C625.826904,577.899536 614.918823,576.144226 604.043457,571.133789 
M613.999878,522.718933 
	C614.838379,523.806702 615.650391,525.814636 616.519348,525.839600 
	C624.952271,526.081848 633.396729,526.077271 641.831970,525.885132 
	C642.851379,525.861938 643.835999,524.313660 644.836731,523.472229 
	C643.750488,522.674805 642.696960,521.247131 641.572327,521.188782 
	C636.620850,520.931580 631.645020,520.948853 626.685303,521.101929 
	C622.620483,521.227417 618.565918,521.684753 613.999878,522.718933 
M632.219543,537.683594 
	C631.904114,535.604187 631.793762,533.448547 631.075867,531.518799 
	C630.952881,531.188232 627.476013,531.296387 626.898254,532.133484 
	C626.030701,533.390503 625.585571,536.261841 626.357056,537.013184 
	C627.477905,538.104797 629.842285,537.919617 632.219543,537.683594 
M632.883667,512.526978 
	C631.703491,511.033234 630.523315,509.539490 629.343079,508.045807 
	C628.202087,509.011444 626.177551,509.929138 626.122009,510.953705 
	C626.033203,512.591431 627.251770,514.300110 627.917664,515.978760 
	C629.556030,515.097168 631.194336,514.215576 632.883667,512.526978 
z"/>
<path fill="#BEADC6" opacity="1.000000" stroke="none" 
	d="
M326.283844,1003.062500 
	C361.016266,1002.843933 386.889740,1028.660034 385.955261,1062.134033 
	C385.155731,1090.773682 361.755493,1114.950928 332.964691,1116.884155 
	C303.738800,1118.846680 277.394928,1098.066772 272.898865,1069.504639 
	C267.541656,1035.471924 290.905548,1006.151428 326.283844,1003.062500 
M329.435760,1071.000732 
	C325.347656,1071.510376 325.077515,1074.314697 326.385956,1077.137329 
	C326.827850,1078.090576 329.916168,1078.948242 330.790436,1078.359009 
	C333.478333,1076.547607 333.201355,1073.955078 331.037445,1071.620239 
	C330.824402,1071.390381 330.468567,1071.292847 329.435760,1071.000732 
z"/>
<path fill="#808080" opacity="1.000000" stroke="none" 
	d="
M670.268799,694.252441 
	C653.872375,710.205078 634.741882,715.813904 613.123047,709.534729 
	C592.134216,703.438477 578.819214,689.073792 573.604858,667.751038 
	C566.027283,636.764404 586.940063,604.693237 618.121155,599.092102 
	C650.456848,593.283569 680.806335,614.811829 685.218872,646.545776 
	C687.745605,664.717468 682.571472,680.396301 670.268799,694.252441 
M628.025635,666.607483 
	C628.927490,666.490784 630.337646,665.959595 630.640625,666.331116 
	C631.781372,667.730103 632.528198,669.443604 633.484070,671.001526 
	C635.169434,673.748169 637.407349,674.773987 641.033081,673.112305 
	C640.265198,671.601562 639.868591,670.114441 638.943665,669.117249 
	C633.333618,663.068726 632.996887,657.172241 638.803650,650.988586 
	C639.649658,650.087646 639.401062,648.158936 639.658997,646.705688 
	C637.899109,647.161682 635.612854,647.086060 634.496033,648.191711 
	C632.563538,650.104797 631.356201,652.750305 629.738098,655.253418 
	C627.704773,652.373352 626.133423,649.607483 623.994141,647.389160 
	C623.164124,646.528503 621.050598,646.905579 619.521729,646.718750 
	C619.681641,648.066162 619.571106,649.525269 620.069824,650.732727 
	C620.693665,652.242798 621.671082,653.674988 622.755310,654.913513 
	C625.565430,658.123474 625.840515,661.126648 623.048279,664.620667 
	C621.072510,667.093079 619.687073,670.037354 617.815735,673.139648 
	C624.495605,675.332947 625.492676,670.407043 628.025635,666.607483 
z"/>
<path fill="#BEADC6" opacity="1.000000" stroke="none" 
	d="
M333.556824,598.149109 
	C361.286804,601.024902 379.245453,620.597412 384.350708,641.557129 
	C391.918671,672.627869 371.936523,704.475220 340.605255,710.816956 
	C308.718903,717.271057 277.913849,696.086792 272.859009,664.228577 
	C267.051575,627.627258 294.968506,596.993958 333.556824,598.149109 
M342.217377,658.440979 
	C340.691681,656.318481 339.165955,654.195984 337.693756,652.147949 
	C338.514038,651.071899 340.653229,649.234802 341.513580,646.922058 
	C343.004303,642.914978 341.589874,639.390625 337.901154,636.998230 
	C332.972443,633.801514 323.586456,634.162659 319.458862,637.757751 
	C316.152893,640.637207 315.332367,644.290466 317.302307,648.119751 
	C318.383728,650.221924 320.361450,651.863098 322.020599,653.812622 
	C321.316315,654.278259 320.464630,654.789795 319.668579,655.376709 
	C316.337128,657.833069 314.471527,660.999878 315.189636,665.263428 
	C315.897552,669.466431 318.492157,672.285217 322.483826,673.288330 
	C325.476654,674.040405 328.722198,674.344788 331.797546,674.106018 
	C340.955841,673.394958 344.605316,668.112793 342.217377,658.440979 
z"/>
<path fill="#BEADC6" opacity="1.000000" stroke="none" 
	d="
M494.946777,842.106934 
	C455.116455,858.371277 413.652893,829.831238 415.053528,787.501160 
	C415.998596,758.937805 439.670563,734.759277 468.315552,733.099426 
	C497.499817,731.408203 523.540283,751.933899 528.064880,780.195190 
	C532.289917,806.585327 519.870728,830.000977 494.946777,842.106934 
M478.881256,774.987305 
	C479.752411,774.285095 480.623535,773.582886 481.494690,772.880737 
	C480.453033,771.953125 479.551544,770.508240 478.346954,770.181702 
	C470.437012,768.037903 462.239227,771.968140 460.088623,779.940979 
	C458.571320,785.566040 458.102814,791.788574 458.684143,797.592285 
	C459.581909,806.554749 465.474762,810.351562 474.522675,809.174255 
	C482.641113,808.117859 487.291443,801.252808 485.603119,792.816589 
	C484.088074,785.245972 477.019562,781.334290 469.134857,783.710938 
	C467.657288,784.156250 466.190002,784.635742 464.509918,785.164978 
	C465.876007,776.437866 469.397644,773.883362 478.881256,774.987305 
z"/>
<path fill="#BEADC6" opacity="1.000000" stroke="none" 
	d="
M240.856812,1041.390381 
	C250.915573,1073.448853 233.776276,1106.060669 202.570343,1114.828979 
	C171.327347,1123.607788 139.542236,1105.005493 131.663986,1073.330933 
	C124.658447,1045.165161 140.646362,1015.786621 168.198273,1006.197510 
	C196.222351,996.444092 226.945297,1009.742981 239.026779,1036.864014 
	C239.635101,1038.229614 240.176392,1039.625000 240.856812,1041.390381 
M195.594009,1042.777710 
	C187.535767,1037.729126 178.235153,1039.143921 175.021088,1046.526611 
	C171.227859,1055.239624 171.125229,1064.456055 175.185760,1073.096558 
	C179.087402,1081.398804 192.805695,1081.727417 197.807892,1074.020508 
	C202.586456,1066.658203 201.714905,1050.421143 195.594009,1042.777710 
z"/>
<path fill="#BEADC6" opacity="1.000000" stroke="none" 
	d="
M492.818024,708.013184 
	C460.689575,719.652161 427.084717,703.196106 417.440186,671.399353 
	C407.951416,640.116150 426.720886,607.537476 458.791901,599.624023 
	C486.629974,592.755005 515.519653,608.255066 525.472656,635.399963 
	C535.408997,662.499451 523.459656,692.837585 497.722351,705.822632 
	C496.240234,706.570435 494.702820,707.208557 492.818024,708.013184 
M458.635498,642.316101 
	C456.751709,647.691528 456.766449,653.049500 460.716003,657.357605 
	C466.006744,663.128662 472.545807,661.506531 478.976807,658.886475 
	C478.263580,667.667114 474.131744,670.613037 464.951385,669.585083 
	C463.819824,669.458374 462.568634,670.400513 461.372864,670.847290 
	C462.245270,671.894531 462.990143,673.698547 464.010071,673.870483 
	C472.893311,675.367676 481.106812,673.911926 483.836243,663.060120 
	C485.031342,658.308594 485.229736,653.162476 485.013428,648.233582 
	C484.691101,640.888916 481.160187,636.621094 475.397980,635.225403 
	C468.734314,633.611206 462.997223,635.841919 458.635498,642.316101 
z"/>
<path fill="#BEADC6" opacity="1.000000" stroke="none" 
	d="
M203.327667,870.412109 
	C232.023972,879.853638 248.059067,906.472473 242.953445,935.714233 
	C238.186142,963.018250 212.966904,982.931396 184.406479,981.943054 
	C155.850372,980.954773 131.692581,957.227539 130.095490,928.600098 
	C128.467133,899.412109 149.011078,873.524536 177.260193,868.876282 
	C185.987991,867.440125 194.483139,868.020630 203.327667,870.412109 
M186.605362,912.691772 
	C186.641357,921.494019 186.558975,930.299744 186.820633,939.095276 
	C186.868683,940.710449 188.313293,942.284180 189.113281,943.877014 
	C190.129562,942.294006 191.979126,940.734985 192.025345,939.124207 
	C192.301682,929.497437 192.214554,919.858337 192.139175,910.224243 
	C192.104462,905.787598 189.525024,904.129150 185.706329,906.376282 
	C182.733902,908.125366 179.995422,910.424866 177.578934,912.896240 
	C176.501724,913.997864 176.470932,916.122742 175.965225,917.783203 
	C176.373306,917.983887 176.781387,918.184570 177.189468,918.385254 
	C180.110031,916.350220 183.030594,914.315247 186.605362,912.691772 
z"/>
<path fill="#BEADC6" opacity="1.000000" stroke="none" 
	d="
M273.039368,914.348328 
	C280.414612,884.924011 303.045532,867.135254 331.448517,868.052246 
	C360.013062,868.974365 384.187958,892.591797 385.896881,921.244995 
	C387.634247,950.376160 367.085144,976.524231 338.895111,981.053101 
	C299.161316,987.436523 266.603149,954.693298 273.039368,914.348328 
M329.253479,909.759888 
	C334.448090,910.970459 336.442749,913.223450 335.144196,918.090820 
	C334.239655,921.481323 332.346161,924.890747 330.043884,927.557434 
	C326.805115,931.308716 322.671417,934.273438 319.154602,937.807556 
	C318.126099,938.841064 317.204590,940.845520 317.522034,942.071594 
	C317.761902,942.997986 320.031891,943.882263 321.432526,943.938782 
	C326.753540,944.153381 332.095764,944.174133 337.412781,943.913452 
	C338.677399,943.851440 339.874756,942.417419 341.103027,941.614441 
	C339.872467,940.794739 338.693573,939.380310 337.401581,939.268005 
	C333.707672,938.947144 329.967834,939.155212 325.829315,939.155212 
	C330.370697,934.155029 334.753448,930.057068 338.240387,925.302185 
	C342.393219,919.639343 342.215515,912.509277 338.722168,908.564941 
	C335.326324,904.730774 325.678070,903.382629 320.487946,906.345398 
	C319.198700,907.081360 318.590729,909.010864 317.669617,910.391785 
	C318.033417,910.687744 318.397186,910.983643 318.760986,911.279602 
	C321.975586,910.723206 325.190216,910.166870 329.253479,909.759888 
z"/>
<path fill="#BDACC5" opacity="1.000000" stroke="none" 
	d="
M517.879150,1026.187134 
	C531.371216,1046.199463 533.149780,1066.922485 521.591309,1087.705811 
	C510.449921,1107.739136 492.504608,1117.389893 469.589874,1116.885986 
	C441.007050,1116.257446 416.814178,1092.431030 415.100891,1063.761353 
	C413.359222,1034.616821 433.897858,1008.386536 462.132965,1003.968994 
	C484.869537,1000.411743 503.304810,1008.081970 517.879150,1026.187134 
M427.834015,1049.595093 
	C427.834015,1056.733032 427.832977,1063.871094 427.834290,1071.009033 
	C427.835754,1078.841675 427.831879,1078.942627 435.731873,1079.319946 
	C442.567413,1079.646729 449.381012,1078.970337 453.296478,1072.438232 
	C457.954620,1064.667236 458.179199,1056.211060 454.206421,1048.120239 
	C450.631042,1040.838745 443.673981,1039.805542 436.360077,1039.920898 
	C427.893860,1040.054443 427.838776,1040.030151 427.834015,1049.595093 
M469.729431,1074.260864 
	C468.294220,1072.144775 466.859009,1070.028687 464.700989,1066.846802 
	C468.658691,1066.846802 470.798248,1066.847412 472.937805,1066.846558 
	C475.263641,1066.845703 477.684723,1067.238770 479.883179,1066.708740 
	C481.449463,1066.331177 483.699615,1064.903198 483.951569,1063.613403 
	C485.250427,1056.963379 480.050446,1051.108032 473.209381,1050.977173 
	C464.422058,1050.809204 459.861786,1056.804321 460.740295,1067.369873 
	C461.528412,1076.848145 471.703857,1082.823975 480.211395,1078.675171 
	C481.194000,1078.196045 481.671906,1076.681763 482.619415,1075.304932 
	C477.948608,1075.076416 474.199890,1074.892944 469.729431,1074.260864 
M492.079254,1074.974365 
	C493.197388,1076.273560 494.315521,1077.572632 495.433655,1078.871826 
	C496.213898,1077.388550 497.639618,1075.918213 497.669983,1074.419800 
	C497.872314,1064.442505 497.903809,1054.456177 497.656219,1044.481079 
	C497.613159,1042.747803 495.981689,1041.054077 495.083862,1039.342041 
	C494.080627,1041.103149 492.261658,1042.840698 492.209839,1044.629395 
	C491.925873,1054.436157 492.075104,1064.255371 492.079254,1074.974365 
M511.630188,1078.991577 
	C512.729736,1077.333618 514.153625,1075.781372 514.747681,1073.958618 
	C514.947632,1073.345093 513.184082,1071.555298 512.046936,1071.218384 
	C511.197296,1070.966797 508.958282,1072.243164 508.988434,1072.738892 
	C509.110840,1074.751099 509.865173,1076.726196 510.411102,1078.708130 
	C510.437561,1078.803955 510.698517,1078.835327 511.630188,1078.991577 
z"/>
<path fill="#BEADC5" opacity="1.000000" stroke="none" 
	d="
M272.502991,797.224548 
	C269.366455,766.491943 289.279510,739.189209 318.165894,734.060547 
	C348.081451,728.749146 376.381378,746.429810 383.995026,775.187988 
	C392.414093,806.988464 372.417206,839.480713 340.517639,845.832886 
	C307.948151,852.318481 277.608368,830.800232 272.502991,797.224548 
M330.593872,804.369080 
	C327.661560,804.232727 324.729828,804.017273 321.796722,803.996704 
	C320.512756,803.987671 319.225983,804.376892 317.940491,804.585327 
	C318.845642,805.944458 319.538666,808.215515 320.697235,808.485046 
	C323.703156,809.184143 326.944427,809.364258 330.037048,809.103271 
	C338.649200,808.376465 343.105591,802.136902 341.593689,793.374878 
	C340.353302,786.186279 334.730530,782.972961 326.505035,784.732910 
	C325.735077,784.897705 324.940460,784.947266 323.624634,785.120422 
	C323.819611,781.606689 323.996582,778.417725 324.184845,775.025330 
	C327.408813,775.025330 330.095428,775.305664 332.693054,774.945129 
	C335.196564,774.597595 339.783386,773.200012 339.734802,772.927734 
	C338.971100,768.648926 335.355896,770.602295 332.943481,770.567993 
	C318.884796,770.367798 318.883423,770.466797 318.214386,784.736084 
	C317.897339,791.497253 318.359344,791.840881 324.720978,789.575745 
	C329.937653,787.718384 334.048889,788.743591 335.584839,792.284973 
	C337.471466,796.635010 335.747559,801.440918 330.593872,804.369080 
z"/>
<path fill="#BDADC5" opacity="1.000000" stroke="none" 
	d="
M520.687317,954.583130 
	C506.207275,976.025818 486.339874,985.473938 461.258209,980.740601 
	C437.711151,976.296875 422.634735,961.420471 416.679108,938.144348 
	C408.778717,907.267822 429.368011,875.242432 460.589661,869.147888 
	C492.413757,862.935730 523.015259,883.966370 528.126038,915.382324 
	C530.387451,929.283264 527.842346,942.155090 520.687317,954.583130 
M462.489899,938.459045 
	C461.679138,939.025208 460.868378,939.591309 460.057587,940.157410 
	C460.909271,941.248962 461.623077,943.109558 462.637909,943.291504 
	C466.018494,943.897766 469.543732,944.333984 472.946594,944.045532 
	C479.775879,943.466736 483.691071,938.842529 483.723511,932.065735 
	C483.753754,925.748779 481.875977,923.742249 472.327820,920.424927 
	C475.651764,917.232544 478.856934,914.379700 481.749573,911.239014 
	C482.620544,910.293396 483.224640,908.333435 482.834076,907.235413 
	C482.516876,906.343567 480.543549,905.604797 479.278748,905.561768 
	C473.963837,905.381348 468.631836,905.339233 463.323761,905.602539 
	C462.125732,905.661987 460.998596,907.151245 459.838806,907.982300 
	C460.983704,908.661255 462.096252,909.850830 463.279388,909.925720 
	C467.193512,910.173584 471.133118,910.019226 475.760742,910.019226 
	C473.294647,912.546936 471.195679,914.371033 469.508179,916.518494 
	C467.760956,918.741760 466.412933,921.278687 464.890289,923.678345 
	C467.147736,924.326965 469.372284,925.148743 471.670044,925.585144 
	C475.481354,926.309021 478.277954,927.732117 478.128540,932.278381 
	C477.975494,936.935364 475.364136,939.414429 471.055267,939.762451 
	C468.487518,939.969849 465.833740,939.112305 462.489899,938.459045 
z"/>
<path fill="#BEADC6" opacity="1.000000" stroke="none" 
	d="
M148.247803,831.767456 
	C130.379257,814.258606 125.203423,789.697083 134.550522,767.781433 
	C143.935333,745.777405 165.541260,732.174255 189.698364,733.060120 
	C218.081589,734.101013 242.029007,757.509338 243.887497,786.029602 
	C245.794983,815.301758 225.107315,841.542236 196.581131,846.100952 
	C178.307465,849.021240 162.365570,844.099487 148.247803,831.767456 
M194.162857,775.864990 
	C193.492401,774.155884 193.251389,771.837646 191.998657,770.954529 
	C191.180298,770.377686 188.221985,771.387207 187.375290,772.536011 
	C182.042542,779.771484 176.855698,787.131104 171.991058,794.688171 
	C169.558411,798.467224 170.950363,800.378967 175.658401,800.475159 
	C179.786972,800.559570 183.918640,800.492859 186.839691,800.492859 
	C188.709946,803.901794 190.079803,806.398560 191.449646,808.895386 
	C192.776917,806.382629 194.104187,803.869812 195.579727,801.076355 
	C196.678879,800.436218 198.399551,799.434082 200.120224,798.431946 
	C198.338516,797.203247 196.556824,795.974548 194.162964,794.323730 
	C194.162964,789.081604 194.162964,782.934448 194.162857,775.864990 
z"/>
<path fill="#BEADC6" opacity="1.000000" stroke="none" 
	d="
M233.695114,687.623535 
	C218.635605,707.318787 199.008820,715.619934 175.139526,710.559814 
	C152.154907,705.687195 137.409439,690.907471 131.627396,668.012573 
	C123.876488,637.321472 144.125061,605.664612 175.239212,599.210388 
	C206.974731,592.627258 238.030502,613.875549 243.134125,645.528809 
	C245.585815,660.734497 242.356995,674.580933 233.695114,687.623535 
M198.710114,641.283936 
	C200.040283,635.864868 199.806778,635.526367 194.390610,635.493774 
	C189.078003,635.461853 183.759201,635.352600 178.456314,635.582336 
	C177.112152,635.640503 175.818237,636.859070 174.501236,637.544495 
	C175.840668,638.369263 177.143829,639.826050 178.526062,639.905334 
	C183.538040,640.193054 188.576538,640.018860 194.163422,640.018860 
	C192.948975,642.249329 192.075363,643.643127 191.401031,645.127502 
	C187.768402,653.123840 184.081802,661.099365 180.694443,669.199463 
	C180.175064,670.441406 181.114502,672.293457 181.379227,673.863281 
	C182.783920,672.928223 184.251816,672.071228 185.557663,671.014160 
	C185.991730,670.662720 185.957840,669.774414 186.225891,669.170593 
	C190.258224,660.085754 194.305298,651.007446 198.710114,641.283936 
z"/>
<path fill="#FEA401" opacity="1.000000" stroke="none" 
	d="
M501.582886,471.312744 
	C523.045532,485.783295 532.465698,505.664825 527.737244,530.739807 
	C523.297363,554.284729 508.414276,569.366089 485.142609,575.313049 
	C454.222107,583.214478 422.265137,562.662048 416.151398,531.409119 
	C409.892517,499.414337 431.035492,468.920044 462.878937,463.815948 
	C476.610291,461.614990 489.314117,464.266083 501.582886,471.312744 
M468.846771,514.771912 
	C468.917938,512.290039 469.401520,509.728119 468.940033,507.349548 
	C468.510437,505.135071 467.603577,502.464996 465.975281,501.141724 
	C462.215393,498.086182 455.209900,499.568573 452.648987,503.390350 
	C449.523193,508.055267 450.795013,516.411255 455.051758,519.176697 
	C459.787354,522.253174 464.399353,521.105042 468.673157,515.537170 
	C468.714600,516.669006 469.175446,518.012512 468.728699,518.898010 
	C466.044250,524.219482 463.066010,529.393005 460.399017,534.722595 
	C459.852051,535.815674 460.208771,537.360901 460.148956,538.697754 
	C461.692902,538.453796 463.652679,538.706665 464.680603,537.846191 
	C466.121399,536.640259 466.817932,534.571533 467.923431,532.932983 
	C469.999695,529.855591 472.140900,526.821960 473.874786,524.752319 
	C472.360229,531.885254 473.787933,536.707825 478.187134,538.758240 
	C482.355072,540.700806 486.539673,540.410034 489.726410,537.076294 
	C493.310577,533.326721 493.238495,528.555725 491.488220,523.959534 
	C489.907043,519.807373 486.353760,518.474121 482.199402,518.790649 
	C480.109741,518.949829 478.057068,519.594482 475.454620,519.404724 
	C477.796875,514.831787 480.280518,510.323059 482.400543,505.649353 
	C483.092499,504.123871 482.837067,502.168701 483.014893,500.410034 
	C481.098877,501.292786 478.544067,501.683258 477.403351,503.163452 
	C475.204437,506.016876 473.980316,509.600983 471.989685,512.645203 
	C471.158508,513.916260 469.402008,514.582336 468.846771,514.771912 
z"/>
<path fill="#FEA401" opacity="1.000000" stroke="none" 
	d="
M273.991089,505.262939 
	C285.612335,464.019226 335.560181,449.078400 367.713287,478.182220 
	C385.655914,494.423218 391.075653,521.871094 380.635071,544.104553 
	C370.270203,566.176758 345.933655,579.876160 322.781067,576.671265 
	C296.713806,573.062927 276.501892,554.490784 273.163727,529.854919 
	C272.095398,521.970764 273.591492,513.739075 273.991089,505.262939 
M302.941742,520.252258 
	C299.874329,520.526184 296.759766,520.569519 293.761749,521.182739 
	C292.488098,521.443237 291.458740,522.898010 290.318359,523.810059 
	C291.444336,524.541321 292.519775,525.786743 293.706177,525.903381 
	C296.759827,526.203491 299.862671,526.003723 303.133850,526.003723 
	C303.133850,529.748718 302.863037,532.773376 303.265106,535.705811 
	C303.429474,536.904602 305.050079,537.903687 306.008179,538.993652 
	C306.925476,537.867798 308.481049,536.822083 308.634399,535.600403 
	C309.016357,532.556824 308.760101,529.433228 308.760101,526.009705 
	C311.900116,526.009705 314.409973,526.290344 316.816895,525.913513 
	C318.492645,525.651123 320.027130,524.486328 321.624725,523.724670 
	C319.941071,522.837585 318.340454,521.508423 316.553223,521.172607 
	C314.191315,520.728760 311.683197,521.063293 308.767517,521.063293 
	C308.767517,517.741333 309.060425,514.913696 308.649567,512.192444 
	C308.429108,510.732056 306.998932,509.454376 306.114655,508.094238 
	C305.117889,509.508911 303.601929,510.806091 303.248749,512.366455 
	C302.747192,514.582458 303.101257,516.992065 302.941742,520.252258 
M344.906677,512.525391 
	C345.931885,510.248077 347.198120,508.041962 347.899414,505.668915 
	C348.384247,504.028259 348.088867,502.157013 348.142120,500.388824 
	C346.308075,501.389587 343.527191,501.934845 342.791504,503.464050 
	C337.453583,514.559326 332.489929,525.836365 327.538177,537.113159 
	C327.098694,538.113953 327.586578,539.522095 327.643768,540.741028 
	C329.163483,540.456177 330.897461,540.524719 332.134888,539.774292 
	C333.117798,539.178223 333.578369,537.619080 334.124573,536.420837 
	C337.644989,528.698303 341.125122,520.957336 344.906677,512.525391 
M367.865356,522.757751 
	C362.652191,522.316162 357.442169,521.815308 352.220215,521.541382 
	C351.785095,521.518494 350.726807,523.206909 350.917908,523.780518 
	C351.209290,524.655090 352.312195,525.829712 353.117462,525.867126 
	C357.392029,526.066040 361.686951,526.059204 365.960022,525.837708 
	C366.694183,525.799683 367.356934,524.383362 367.865356,522.757751 
z"/>
<path fill="#FEA401" opacity="1.000000" stroke="none" 
	d="
M231.985992,554.935181 
	C215.052567,575.239075 190.111511,582.110046 166.640900,573.163208 
	C143.847336,564.474487 129.342651,542.532837 130.042877,517.800110 
	C130.852219,489.212891 154.284195,465.028137 183.029297,463.111481 
	C212.256195,461.162689 238.530624,481.912842 243.114990,510.415314 
	C245.742386,526.750671 241.962921,541.415894 231.985992,554.935181 
M161.769180,518.092957 
	C159.959915,523.277405 157.985413,528.413513 156.443497,533.676270 
	C155.989639,535.225342 156.257523,538.321472 157.061020,538.661560 
	C159.860352,539.846375 162.154266,538.123901 162.476425,535.279602 
	C163.156113,529.279053 166.689392,528.244934 171.785889,528.958557 
	C173.735947,529.231628 175.756256,529.002991 177.905090,529.002991 
	C178.847900,531.687317 179.319412,534.455750 180.751099,536.575745 
	C181.621277,537.864197 183.974091,538.151306 185.660858,538.888245 
	C185.980453,537.334595 186.943390,535.571838 186.517303,534.260498 
	C183.277756,524.289917 179.908768,514.354065 176.211533,504.546326 
	C175.530212,502.738953 173.032837,500.257538 171.631180,500.412720 
	C169.737320,500.622406 167.387833,502.747040 166.486588,504.644897 
	C164.572800,508.675079 163.468475,513.089661 161.769180,518.092957 
M194.742462,517.731750 
	C195.822678,507.906647 199.619934,504.584961 209.370087,504.958710 
	C210.364075,504.996796 211.434738,505.402435 212.325943,505.143127 
	C213.394287,504.832214 214.308151,503.990448 215.288925,503.378540 
	C214.596222,502.346344 214.139603,500.824707 213.173752,500.358887 
	C204.904694,496.370697 192.428329,501.507568 189.531265,510.369537 
	C188.374939,513.906738 188.094498,517.876953 188.153839,521.638367 
	C188.362808,534.883362 199.448166,542.912231 212.191727,539.102173 
	C213.541687,538.698547 214.464874,536.867676 215.586060,535.698975 
	C214.197403,535.155518 212.791855,534.102600 211.422760,534.148010 
	C198.673203,534.571045 194.925049,531.163574 194.742462,517.731750 
z"/>
<path fill="#F5F5F5" opacity="1.000000" stroke="none" 
	d="
M637.913940,931.019104 
	C635.825867,931.019104 634.196838,931.019104 631.955688,931.019104 
	C631.955688,934.357605 632.237366,937.337402 631.831482,940.220337 
	C631.641174,941.571655 630.124512,942.736084 629.208923,943.985168 
	C628.233765,942.711609 626.641052,941.538330 626.414490,940.143127 
	C625.969177,937.401123 626.283447,934.535767 626.283447,931.019104 
	C623.680054,931.019104 621.348633,931.345276 619.162781,930.921326 
	C617.227295,930.545898 615.453674,929.335876 613.608643,928.494263 
	C615.551941,927.679993 617.431396,926.547058 619.456543,926.140808 
	C621.486633,925.733582 623.662231,926.051392 626.279846,926.051392 
	C626.279846,922.829590 625.945496,920.148682 626.400879,917.609436 
	C626.690369,915.995483 628.153015,914.591980 629.089600,913.094116 
	C630.044983,914.527893 631.551819,915.862610 631.831177,917.417908 
	C632.290955,919.977112 631.955872,922.679077 631.955872,926.052551 
	C634.858215,926.052551 637.492065,925.764343 640.021545,926.153870 
	C641.705322,926.413330 643.240051,927.639954 644.841492,928.433594 
	C643.184570,929.295410 641.546265,930.196838 639.857239,930.990540 
	C639.448303,931.182739 638.872192,931.019043 637.913940,931.019104 
z"/>
<path fill="#F5F5F5" opacity="1.000000" stroke="none" 
	d="
M621.249390,1067.170654 
	C628.004822,1067.172119 634.304260,1066.993896 640.579102,1067.307373 
	C642.051880,1067.380981 643.441589,1069.117065 644.869507,1070.088257 
	C643.442871,1070.909180 642.038574,1072.390747 640.585938,1072.439819 
	C633.310547,1072.685059 626.015625,1072.724243 618.743713,1072.433594 
	C617.020325,1072.364624 615.358887,1070.746704 613.669006,1069.841309 
	C615.378662,1068.951172 617.058960,1067.995483 618.815186,1067.209351 
	C619.366821,1066.962280 620.122192,1067.170654 621.249390,1067.170654 
z"/>
<path fill="#F8F8F8" opacity="1.000000" stroke="none" 
	d="
M639.665161,1054.992432 
	C641.694092,1055.764893 643.263855,1056.537354 644.833679,1057.309692 
	C643.340576,1058.184814 641.872253,1059.762329 640.350098,1059.816040 
	C632.914734,1060.078247 625.461060,1060.059814 618.023987,1059.821899 
	C616.617432,1059.776978 615.257141,1058.287354 613.875427,1057.464355 
	C615.205139,1056.640503 616.512451,1055.150024 617.868347,1055.104370 
	C624.974121,1054.865601 632.092163,1054.992554 639.665161,1054.992432 
z"/>
<path fill="#F5F5F5" opacity="1.000000" stroke="none" 
	d="
M625.353271,791.052490 
	C628.464600,791.053040 631.175476,790.752258 633.768738,791.174255 
	C635.206970,791.408325 636.448730,792.850037 637.778992,793.747498 
	C636.513733,794.503784 635.304871,795.764343 633.971680,795.913513 
	C631.014221,796.244324 627.959656,796.288574 625.013367,795.912292 
	C623.361328,795.701294 621.846191,794.418152 620.269348,793.618164 
	C621.814148,792.763123 623.358948,791.908020 625.353271,791.052490 
z"/>
<path fill="#F8F8F8" opacity="1.000000" stroke="none" 
	d="
M614.253296,522.356934 
	C618.565918,521.684753 622.620483,521.227417 626.685303,521.101929 
	C631.645020,520.948853 636.620850,520.931580 641.572327,521.188782 
	C642.696960,521.247131 643.750488,522.674805 644.836731,523.472168 
	C643.835999,524.313660 642.851379,525.861938 641.831970,525.885132 
	C633.396729,526.077271 624.952271,526.081848 616.519348,525.839600 
	C615.650391,525.814636 614.838379,523.806702 614.253296,522.356934 
z"/>
<path fill="#F8F8F8" opacity="1.000000" stroke="none" 
	d="
M631.947937,537.981262 
	C629.842285,537.919617 627.477905,538.104797 626.357056,537.013184 
	C625.585571,536.261841 626.030701,533.390503 626.898254,532.133484 
	C627.476013,531.296387 630.952881,531.188232 631.075867,531.518799 
	C631.793762,533.448547 631.904114,535.604187 631.947937,537.981262 
z"/>
<path fill="#F5F5F5" opacity="1.000000" stroke="none" 
	d="
M632.858154,512.930481 
	C631.194336,514.215576 629.556030,515.097168 627.917603,515.978760 
	C627.251770,514.300110 626.033203,512.591431 626.122009,510.953705 
	C626.177551,509.929138 628.202087,509.011444 629.343079,508.045776 
	C630.523315,509.539490 631.703491,511.033234 632.858154,512.930481 
z"/>
<path fill="#161417" opacity="1.000000" stroke="none" 
	d="
M329.807373,1071.067383 
	C330.468567,1071.292847 330.824402,1071.390381 331.037445,1071.620239 
	C333.201355,1073.955078 333.478333,1076.547607 330.790436,1078.359009 
	C329.916168,1078.948242 326.827850,1078.090576 326.385956,1077.137329 
	C325.077515,1074.314697 325.347656,1071.510376 329.807373,1071.067383 
z"/>
<path fill="#F8F8F8" opacity="1.000000" stroke="none" 
	d="
M627.848206,666.928833 
	C625.492676,670.407043 624.495605,675.332947 617.815735,673.139648 
	C619.687073,670.037354 621.072510,667.093079 623.048279,664.620667 
	C625.840515,661.126648 625.565430,658.123474 622.755310,654.913513 
	C621.671082,653.674988 620.693665,652.242798 620.069824,650.732727 
	C619.571106,649.525269 619.681641,648.066162 619.521729,646.718750 
	C621.050598,646.905579 623.164124,646.528503 623.994141,647.389160 
	C626.133423,649.607483 627.704773,652.373352 629.738098,655.253418 
	C631.356201,652.750305 632.563538,650.104797 634.496033,648.191711 
	C635.612854,647.086060 637.899109,647.161682 639.658997,646.705688 
	C639.401062,648.158936 639.649658,650.087646 638.803650,650.988586 
	C632.996887,657.172241 633.333618,663.068726 638.943665,669.117249 
	C639.868591,670.114441 640.265198,671.601562 641.033081,673.112305 
	C637.407349,674.773987 635.169434,673.748169 633.484070,671.001526 
	C632.528198,669.443604 631.781372,667.730103 630.640625,666.331116 
	C630.337646,665.959595 628.927490,666.490784 627.848206,666.928833 
z"/>
<path fill="#0A0A0A" opacity="1.000000" stroke="none" 
	d="
M342.382324,658.772217 
	C344.605316,668.112793 340.955841,673.394958 331.797546,674.106018 
	C328.722198,674.344788 325.476654,674.040405 322.483826,673.288330 
	C318.492157,672.285217 315.897552,669.466431 315.189636,665.263428 
	C314.471527,660.999878 316.337128,657.833069 319.668579,655.376709 
	C320.464630,654.789795 321.316315,654.278259 322.020599,653.812622 
	C320.361450,651.863098 318.383728,650.221924 317.302307,648.119751 
	C315.332367,644.290466 316.152893,640.637207 319.458862,637.757751 
	C323.586456,634.162659 332.972443,633.801514 337.901154,636.998230 
	C341.589874,639.390625 343.004303,642.914978 341.513580,646.922058 
	C340.653229,649.234802 338.514038,651.071899 337.693756,652.147949 
	C339.165955,654.195984 340.691681,656.318481 342.382324,658.772217 
M321.971619,667.602905 
	C325.402130,668.335144 328.873169,669.800964 332.252838,669.614136 
	C336.482727,669.380310 338.903900,664.886169 337.629639,661.251648 
	C336.251465,657.320740 330.197632,654.887695 325.936462,656.552246 
	C320.713684,658.592285 319.352783,661.781189 321.971619,667.602905 
M326.312958,650.448730 
	C328.075317,650.517822 329.957642,651.019958 331.576599,650.571411 
	C335.719086,649.423950 338.429565,645.323975 336.369598,643.039185 
	C334.556946,641.028809 331.205963,639.495422 328.517883,639.469666 
	C326.332611,639.448730 322.884247,641.587891 322.293060,643.484985 
	C321.764221,645.181885 324.373810,647.856934 326.312958,650.448730 
z"/>
<path fill="#0B0A0C" opacity="1.000000" stroke="none" 
	d="
M478.460510,774.944946 
	C469.397644,773.883362 465.876007,776.437866 464.509918,785.164978 
	C466.190002,784.635742 467.657288,784.156250 469.134857,783.710938 
	C477.019562,781.334290 484.088074,785.245972 485.603119,792.816589 
	C487.291443,801.252808 482.641113,808.117859 474.522675,809.174255 
	C465.474762,810.351562 459.581909,806.554749 458.684143,797.592285 
	C458.102814,791.788574 458.571320,785.566040 460.088623,779.940979 
	C462.239227,771.968140 470.437012,768.037903 478.346954,770.181702 
	C479.551544,770.508240 480.453033,771.953125 481.494690,772.880737 
	C480.623535,773.582886 479.752411,774.285095 478.460510,774.944946 
M463.756714,794.758423 
	C463.571930,798.650513 464.478058,802.034485 468.247223,803.975098 
	C472.389984,806.108032 477.451294,804.559998 479.365906,800.631775 
	C481.781433,795.675781 479.930023,789.829529 475.347626,787.942932 
	C470.379272,785.897461 466.122772,788.115295 463.756714,794.758423 
z"/>
<path fill="#0B0A0C" opacity="1.000000" stroke="none" 
	d="
M195.875763,1043.025146 
	C201.714905,1050.421143 202.586456,1066.658203 197.807892,1074.020508 
	C192.805695,1081.727417 179.087402,1081.398804 175.185760,1073.096558 
	C171.125229,1064.456055 171.227859,1055.239624 175.021088,1046.526611 
	C178.235153,1039.143921 187.535767,1037.729126 195.875763,1043.025146 
M193.157837,1071.451416 
	C196.212250,1064.603271 195.778671,1057.536011 194.245697,1050.483276 
	C193.360748,1046.411987 190.482422,1044.142578 186.345245,1044.315430 
	C182.460632,1044.477783 179.490128,1046.789062 179.147720,1050.682251 
	C178.644577,1056.402466 178.168610,1062.308472 179.045746,1067.921997 
	C180.218399,1075.426758 186.671478,1077.111084 193.157837,1071.451416 
z"/>
<path fill="#0A0A0A" opacity="1.000000" stroke="none" 
	d="
M458.789551,641.969604 
	C462.997223,635.841919 468.734314,633.611206 475.397980,635.225403 
	C481.160187,636.621094 484.691101,640.888916 485.013428,648.233582 
	C485.229736,653.162476 485.031342,658.308594 483.836243,663.060120 
	C481.106812,673.911926 472.893311,675.367676 464.010071,673.870483 
	C462.990143,673.698547 462.245270,671.894531 461.372864,670.847290 
	C462.568634,670.400513 463.819824,669.458374 464.951385,669.585083 
	C474.131744,670.613037 478.263580,667.667114 478.976807,658.886475 
	C472.545807,661.506531 466.006744,663.128662 460.716003,657.357605 
	C456.766449,653.049500 456.751709,647.691528 458.789551,641.969604 
M463.603790,644.476990 
	C462.352966,651.439575 464.357483,655.709656 469.399109,656.822449 
	C473.650909,657.760864 477.586487,655.711365 479.066589,651.787781 
	C480.740845,647.349548 479.204132,642.473450 475.503082,640.480530 
	C471.465576,638.306396 467.139862,639.527405 463.603790,644.476990 
z"/>
<path fill="#060506" opacity="1.000000" stroke="none" 
	d="
M186.278259,912.485962 
	C183.030594,914.315247 180.110031,916.350220 177.189468,918.385254 
	C176.781387,918.184570 176.373306,917.983887 175.965225,917.783203 
	C176.470932,916.122742 176.501724,913.997864 177.578934,912.896240 
	C179.995422,910.424866 182.733902,908.125366 185.706329,906.376282 
	C189.525024,904.129150 192.104462,905.787598 192.139175,910.224243 
	C192.214554,919.858337 192.301682,929.497437 192.025345,939.124207 
	C191.979126,940.734985 190.129562,942.294006 189.113281,943.877014 
	C188.313293,942.284180 186.868683,940.710449 186.820633,939.095276 
	C186.558975,930.299744 186.641357,921.494019 186.278259,912.485962 
z"/>
<path fill="#0B0A0C" opacity="1.000000" stroke="none" 
	d="
M328.829163,909.685181 
	C325.190216,910.166870 321.975586,910.723206 318.760986,911.279602 
	C318.397186,910.983643 318.033417,910.687744 317.669617,910.391785 
	C318.590729,909.010864 319.198700,907.081360 320.487946,906.345398 
	C325.678070,903.382629 335.326324,904.730774 338.722168,908.564941 
	C342.215515,912.509277 342.393219,919.639343 338.240387,925.302185 
	C334.753448,930.057068 330.370697,934.155029 325.829315,939.155212 
	C329.967834,939.155212 333.707672,938.947144 337.401581,939.268005 
	C338.693573,939.380310 339.872467,940.794739 341.103027,941.614502 
	C339.874756,942.417419 338.677399,943.851440 337.412781,943.913452 
	C332.095764,944.174133 326.753540,944.153381 321.432526,943.938782 
	C320.031891,943.882263 317.761902,942.997986 317.522034,942.071594 
	C317.204590,940.845520 318.126099,938.841064 319.154602,937.807556 
	C322.671417,934.273438 326.805115,931.308716 330.043884,927.557434 
	C332.346161,924.890747 334.239655,921.481323 335.144196,918.090820 
	C336.442749,913.223450 334.448090,910.970459 328.829163,909.685181 
z"/>
<path fill="#080708" opacity="1.000000" stroke="none" 
	d="
M427.833984,1049.113281 
	C427.838776,1040.030151 427.893860,1040.054443 436.360077,1039.920898 
	C443.673981,1039.805542 450.631042,1040.838745 454.206421,1048.120239 
	C458.179199,1056.211060 457.954620,1064.667236 453.296478,1072.438232 
	C449.381012,1078.970337 442.567413,1079.646729 435.731873,1079.319946 
	C427.831879,1078.942627 427.835754,1078.841675 427.834290,1071.009033 
	C427.832977,1063.871094 427.834015,1056.733032 427.833984,1049.113281 
M441.701965,1074.585083 
	C450.363708,1071.877319 454.079681,1062.198242 450.383698,1051.971680 
	C448.038971,1045.484009 440.780701,1042.748657 433.267181,1045.699707 
	C433.267181,1052.924072 433.266968,1060.241211 433.267242,1067.558228 
	C433.267517,1075.221802 433.267731,1075.221802 441.701965,1074.585083 
z"/>
<path fill="#0B0A0C" opacity="1.000000" stroke="none" 
	d="
M470.090302,1074.485229 
	C474.199890,1074.892944 477.948608,1075.076416 482.619415,1075.304932 
	C481.671906,1076.681763 481.194000,1078.196045 480.211395,1078.675171 
	C471.703857,1082.823975 461.528412,1076.848145 460.740295,1067.369873 
	C459.861786,1056.804321 464.422058,1050.809204 473.209381,1050.977173 
	C480.050446,1051.108032 485.250427,1056.963379 483.951569,1063.613403 
	C483.699615,1064.903198 481.449463,1066.331177 479.883179,1066.708740 
	C477.684723,1067.238770 475.263641,1066.845703 472.937805,1066.846558 
	C470.798248,1066.847412 468.658691,1066.846802 464.700989,1066.846802 
	C466.859009,1070.028687 468.294220,1072.144775 470.090302,1074.485229 
M477.016235,1056.420166 
	C470.710968,1053.322510 466.938141,1055.379395 466.299683,1062.501709 
	C470.457886,1062.501709 474.591309,1062.501709 479.366119,1062.501709 
	C478.641998,1060.340454 478.087830,1058.686523 477.016235,1056.420166 
z"/>
<path fill="#161417" opacity="1.000000" stroke="none" 
	d="
M492.077393,1074.522339 
	C492.075104,1064.255371 491.925873,1054.436157 492.209839,1044.629395 
	C492.261658,1042.840698 494.080627,1041.103149 495.083862,1039.342041 
	C495.981689,1041.054077 497.613159,1042.747803 497.656219,1044.481079 
	C497.903809,1054.456177 497.872314,1064.442505 497.669983,1074.419800 
	C497.639618,1075.918213 496.213898,1077.388550 495.433655,1078.871826 
	C494.315521,1077.572632 493.197388,1076.273560 492.077393,1074.522339 
z"/>
<path fill="#0B0A0C" opacity="1.000000" stroke="none" 
	d="
M511.240234,1078.944092 
	C510.698517,1078.835327 510.437561,1078.803955 510.411102,1078.708130 
	C509.865173,1076.726196 509.110840,1074.751099 508.988434,1072.738892 
	C508.958282,1072.243164 511.197296,1070.966797 512.046936,1071.218384 
	C513.184082,1071.555298 514.947632,1073.345093 514.747681,1073.958618 
	C514.153625,1075.781372 512.729736,1077.333618 511.240234,1078.944092 
z"/>
<path fill="#0B0A0C" opacity="1.000000" stroke="none" 
	d="
M330.969910,804.235657 
	C335.747559,801.440918 337.471466,796.635010 335.584839,792.284973 
	C334.048889,788.743591 329.937653,787.718384 324.720978,789.575745 
	C318.359344,791.840881 317.897339,791.497253 318.214386,784.736084 
	C318.883423,770.466797 318.884796,770.367798 332.943481,770.567993 
	C335.355896,770.602295 338.971100,768.648926 339.734802,772.927734 
	C339.783386,773.200012 335.196564,774.597595 332.693054,774.945129 
	C330.095428,775.305664 327.408813,775.025330 324.184845,775.025330 
	C323.996582,778.417725 323.819611,781.606689 323.624634,785.120422 
	C324.940460,784.947266 325.735077,784.897705 326.505035,784.732910 
	C334.730530,782.972961 340.353302,786.186279 341.593689,793.374878 
	C343.105591,802.136902 338.649200,808.376465 330.037048,809.103271 
	C326.944427,809.364258 323.703156,809.184143 320.697235,808.485046 
	C319.538666,808.215515 318.845642,805.944458 317.940491,804.585327 
	C319.225983,804.376892 320.512756,803.987671 321.796722,803.996704 
	C324.729828,804.017273 327.661560,804.232727 330.969910,804.235657 
z"/>
<path fill="#0A0A0A" opacity="1.000000" stroke="none" 
	d="
M462.854248,938.596252 
	C465.833740,939.112305 468.487518,939.969849 471.055267,939.762451 
	C475.364136,939.414429 477.975494,936.935364 478.128540,932.278381 
	C478.277954,927.732117 475.481354,926.309021 471.670044,925.585144 
	C469.372284,925.148743 467.147736,924.326965 464.890320,923.678345 
	C466.412933,921.278687 467.760956,918.741760 469.508179,916.518494 
	C471.195679,914.371033 473.294647,912.546936 475.760742,910.019226 
	C471.133118,910.019226 467.193512,910.173584 463.279388,909.925720 
	C462.096252,909.850830 460.983704,908.661255 459.838806,907.982300 
	C460.998596,907.151245 462.125732,905.661987 463.323761,905.602539 
	C468.631836,905.339233 473.963837,905.381348 479.278748,905.561768 
	C480.543549,905.604797 482.516876,906.343567 482.834076,907.235413 
	C483.224640,908.333435 482.620544,910.293396 481.749573,911.239014 
	C478.856934,914.379700 475.651764,917.232544 472.327820,920.424927 
	C481.875977,923.742249 483.753754,925.748779 483.723511,932.065735 
	C483.691071,938.842529 479.775879,943.466736 472.946594,944.045532 
	C469.543732,944.333984 466.018494,943.897766 462.637909,943.291504 
	C461.623077,943.109558 460.909271,941.248962 460.057617,940.157410 
	C460.868378,939.591309 461.679138,939.025208 462.854248,938.596252 
z"/>
<path fill="#060506" opacity="1.000000" stroke="none" 
	d="
M194.162903,776.326172 
	C194.162964,782.934448 194.162964,789.081604 194.162964,794.323730 
	C196.556824,795.974548 198.338516,797.203247 200.120239,798.431946 
	C198.399551,799.434082 196.678879,800.436218 195.579727,801.076355 
	C194.104187,803.869812 192.776917,806.382629 191.449646,808.895386 
	C190.079803,806.398560 188.709946,803.901794 186.839691,800.492859 
	C183.918640,800.492859 179.786972,800.559570 175.658401,800.475159 
	C170.950363,800.378967 169.558411,798.467224 171.991058,794.688171 
	C176.855698,787.131104 182.042542,779.771484 187.375290,772.536011 
	C188.221985,771.387207 191.180298,770.377686 191.998657,770.954529 
	C193.251389,771.837646 193.492401,774.155884 194.162903,776.326172 
M182.038147,787.538513 
	C180.318619,790.102112 178.599106,792.665771 176.572998,795.686523 
	C180.994019,795.686523 184.673752,795.686523 188.502472,795.686523 
	C188.502472,790.187256 188.502472,784.994202 188.502472,778.375854 
	C185.985413,781.937195 184.215576,784.441284 182.038147,787.538513 
z"/>
<path fill="#090909" opacity="1.000000" stroke="none" 
	d="
M198.529510,641.605774 
	C194.305298,651.007446 190.258224,660.085754 186.225891,669.170593 
	C185.957840,669.774414 185.991730,670.662720 185.557663,671.014160 
	C184.251816,672.071228 182.783920,672.928223 181.379242,673.863281 
	C181.114502,672.293457 180.175064,670.441406 180.694443,669.199463 
	C184.081802,661.099365 187.768402,653.123840 191.401031,645.127502 
	C192.075363,643.643127 192.948975,642.249329 194.163422,640.018860 
	C188.576538,640.018860 183.538040,640.193054 178.526062,639.905334 
	C177.143829,639.826050 175.840668,638.369263 174.501221,637.544495 
	C175.818237,636.859070 177.112152,635.640503 178.456314,635.582336 
	C183.759201,635.352600 189.078003,635.461853 194.390610,635.493774 
	C199.806778,635.526367 200.040283,635.864868 198.529510,641.605774 
z"/>
<path fill="#FFFAF0" opacity="1.000000" stroke="none" 
	d="
M475.987671,520.019592 
	C478.057068,519.594482 480.109741,518.949829 482.199402,518.790649 
	C486.353760,518.474121 489.907043,519.807373 491.488220,523.959534 
	C493.238495,528.555725 493.310577,533.326721 489.726410,537.076294 
	C486.539673,540.410034 482.355072,540.700806 478.187134,538.758240 
	C473.787933,536.707825 472.360229,531.885254 474.035217,524.137695 
	C474.455078,522.867920 474.714539,522.212769 475.308350,521.407837 
	C475.773834,520.827576 475.904907,520.397095 476.016357,519.973206 
	C475.996704,519.979797 475.987671,520.019592 475.987671,520.019592 
M481.784088,523.606750 
	C481.237976,526.786621 480.691895,529.966492 480.145813,533.146362 
	C481.754395,533.420166 484.026764,534.500427 484.851379,533.821716 
	C487.717102,531.463074 486.133789,525.165894 481.784088,523.606750 
z"/>
<path fill="#FFF9ED" opacity="1.000000" stroke="none" 
	d="
M474.973999,521.557556 
	C474.714539,522.212769 474.455078,522.867920 474.225342,523.646606 
	C472.140900,526.821960 469.999695,529.855591 467.923431,532.932983 
	C466.817932,534.571533 466.121399,536.640259 464.680603,537.846191 
	C463.652679,538.706665 461.692902,538.453796 460.148956,538.697754 
	C460.208771,537.360901 459.852051,535.815674 460.399017,534.722595 
	C463.066010,529.393005 466.044250,524.219482 468.728699,518.898010 
	C469.175446,518.012512 468.714600,516.669006 468.341614,515.671021 
	C468.010101,515.804871 468.066254,515.523499 468.066254,515.523499 
	C469.402008,514.582336 471.158508,513.916260 471.989685,512.645203 
	C473.980316,509.600983 475.204437,506.016876 477.403351,503.163452 
	C478.544067,501.683258 481.098877,501.292786 483.014893,500.410034 
	C482.837067,502.168701 483.092499,504.123871 482.400543,505.649353 
	C480.280518,510.323059 477.796875,514.831787 475.721130,519.712158 
	C475.987671,520.019592 475.996704,519.979797 475.597046,519.989380 
	C475.122955,520.518494 475.048462,521.038025 474.973999,521.557556 
z"/>
<path fill="#FFFAF0" opacity="1.000000" stroke="none" 
	d="
M468.456512,515.147705 
	C468.066254,515.523499 468.010101,515.804871 468.000122,515.880249 
	C464.399353,521.105042 459.787354,522.253174 455.051758,519.176697 
	C450.795013,516.411255 449.523193,508.055267 452.648987,503.390350 
	C455.209900,499.568573 462.215393,498.086182 465.975281,501.141724 
	C467.603577,502.464996 468.510437,505.135071 468.940033,507.349548 
	C469.401520,509.728119 468.917938,512.290039 468.456512,515.147705 
M459.133972,504.692017 
	C458.696198,507.748932 458.049225,510.804230 458.025330,513.864380 
	C458.021301,514.377930 460.714935,514.912598 462.162140,515.437500 
	C462.752411,513.152527 464.028046,510.765320 463.707581,508.616058 
	C463.468231,507.010498 461.168701,505.712097 459.133972,504.692017 
z"/>
<path fill="#FFF9ED" opacity="1.000000" stroke="none" 
	d="
M303.015717,519.785645 
	C303.101257,516.992065 302.747192,514.582458 303.248749,512.366455 
	C303.601929,510.806091 305.117889,509.508911 306.114655,508.094238 
	C306.998932,509.454376 308.429108,510.732056 308.649567,512.192444 
	C309.060425,514.913696 308.767517,517.741333 308.767517,521.063293 
	C311.683197,521.063293 314.191315,520.728760 316.553223,521.172607 
	C318.340454,521.508423 319.941071,522.837585 321.624725,523.724670 
	C320.027130,524.486328 318.492645,525.651123 316.816895,525.913513 
	C314.409973,526.290344 311.900116,526.009705 308.760101,526.009705 
	C308.760101,529.433228 309.016357,532.556824 308.634399,535.600403 
	C308.481049,536.822083 306.925476,537.867798 306.008179,538.993652 
	C305.050079,537.903687 303.429474,536.904602 303.265106,535.705811 
	C302.863037,532.773376 303.133850,529.748718 303.133850,526.003723 
	C299.862671,526.003723 296.759827,526.203491 293.706177,525.903381 
	C292.519775,525.786743 291.444336,524.541321 290.318359,523.810059 
	C291.458740,522.898010 292.488098,521.443237 293.761749,521.182739 
	C296.759766,520.569519 299.874329,520.526184 303.015717,519.785645 
z"/>
<path fill="#FFF9ED" opacity="1.000000" stroke="none" 
	d="
M344.762573,512.873901 
	C341.125122,520.957336 337.644989,528.698303 334.124573,536.420837 
	C333.578369,537.619080 333.117798,539.178223 332.134888,539.774292 
	C330.897461,540.524719 329.163483,540.456177 327.643738,540.741028 
	C327.586578,539.522095 327.098694,538.113953 327.538177,537.113159 
	C332.489929,525.836365 337.453583,514.559326 342.791504,503.464050 
	C343.527191,501.934845 346.308075,501.389587 348.142120,500.388824 
	C348.088867,502.157013 348.384247,504.028259 347.899414,505.668915 
	C347.198120,508.041962 345.931885,510.248077 344.762573,512.873901 
z"/>
<path fill="#FFFAF0" opacity="1.000000" stroke="none" 
	d="
M367.959015,523.180725 
	C367.356934,524.383362 366.694183,525.799683 365.960022,525.837708 
	C361.686951,526.059204 357.392029,526.066040 353.117462,525.867126 
	C352.312195,525.829712 351.209290,524.655090 350.917908,523.780518 
	C350.726807,523.206909 351.785095,521.518494 352.220215,521.541382 
	C357.442169,521.815308 362.652191,522.316162 367.959015,523.180725 
z"/>
<path fill="#FFFAF0" opacity="1.000000" stroke="none" 
	d="
M161.900726,517.719849 
	C163.468475,513.089661 164.572800,508.675079 166.486588,504.644897 
	C167.387833,502.747040 169.737320,500.622406 171.631180,500.412720 
	C173.032837,500.257538 175.530212,502.738953 176.211533,504.546326 
	C179.908768,514.354065 183.277756,524.289917 186.517303,534.260498 
	C186.943390,535.571838 185.980453,537.334595 185.660858,538.888245 
	C183.974091,538.151306 181.621277,537.864197 180.751099,536.575745 
	C179.319412,534.455750 178.847900,531.687317 177.905090,529.002991 
	C175.756256,529.002991 173.735947,529.231628 171.785889,528.958557 
	C166.689392,528.244934 163.156113,529.279053 162.476425,535.279602 
	C162.154266,538.123901 159.860352,539.846375 157.061020,538.661560 
	C156.257523,538.321472 155.989639,535.225342 156.443497,533.676270 
	C157.985413,528.413513 159.959915,523.277405 161.900726,517.719849 
M169.940933,510.805573 
	C168.656570,515.058167 167.372192,519.310791 166.061676,523.650024 
	C169.643967,523.650024 172.832123,523.650024 176.512527,523.650024 
	C174.806931,518.072693 173.249390,512.979553 171.484818,507.209412 
	C170.818390,508.642548 170.476273,509.378235 169.940933,510.805573 
z"/>
<path fill="#FFFAF0" opacity="1.000000" stroke="none" 
	d="
M194.715195,518.176025 
	C194.925049,531.163574 198.673203,534.571045 211.422760,534.148010 
	C212.791855,534.102600 214.197403,535.155518 215.586060,535.698975 
	C214.464874,536.867676 213.541687,538.698547 212.191727,539.102173 
	C199.448166,542.912231 188.362808,534.883362 188.153839,521.638367 
	C188.094498,517.876953 188.374939,513.906738 189.531265,510.369537 
	C192.428329,501.507568 204.904694,496.370697 213.173752,500.358887 
	C214.139603,500.824707 214.596222,502.346344 215.288910,503.378540 
	C214.308151,503.990448 213.394287,504.832214 212.325943,505.143127 
	C211.434738,505.402435 210.364075,504.996796 209.370087,504.958710 
	C199.619934,504.584961 195.822678,507.906647 194.715195,518.176025 
z"/>
<path fill="#BAA9C1" opacity="1.000000" stroke="none" 
	d="
M321.720642,667.310669 
	C319.352783,661.781189 320.713684,658.592285 325.936462,656.552246 
	C330.197632,654.887695 336.251465,657.320740 337.629639,661.251648 
	C338.903900,664.886169 336.482727,669.380310 332.252838,669.614136 
	C328.873169,669.800964 325.402130,668.335144 321.720642,667.310669 
z"/>
<path fill="#B7A7BF" opacity="1.000000" stroke="none" 
	d="
M325.955811,650.274536 
	C324.373810,647.856934 321.764221,645.181885 322.293060,643.484985 
	C322.884247,641.587891 326.332611,639.448730 328.517883,639.469666 
	C331.205963,639.495422 334.556946,641.028809 336.369598,643.039185 
	C338.429565,645.323975 335.719086,649.423950 331.576599,650.571411 
	C329.957642,651.019958 328.075317,650.517822 325.955811,650.274536 
z"/>
<path fill="#B7A7BF" opacity="1.000000" stroke="none" 
	d="
M463.806885,794.344299 
	C466.122772,788.115295 470.379272,785.897461 475.347626,787.942932 
	C479.930023,789.829529 481.781433,795.675781 479.365906,800.631775 
	C477.451294,804.559998 472.389984,806.108032 468.247223,803.975098 
	C464.478058,802.034485 463.571930,798.650513 463.806885,794.344299 
z"/>
<path fill="#BAA9C1" opacity="1.000000" stroke="none" 
	d="
M192.946320,1071.787354 
	C186.671478,1077.111084 180.218399,1075.426758 179.045746,1067.921997 
	C178.168610,1062.308472 178.644577,1056.402466 179.147720,1050.682251 
	C179.490128,1046.789062 182.460632,1044.477783 186.345245,1044.315430 
	C190.482422,1044.142578 193.360748,1046.411987 194.245697,1050.483276 
	C195.778671,1057.536011 196.212250,1064.603271 192.946320,1071.787354 
z"/>
<path fill="#B7A7BF" opacity="1.000000" stroke="none" 
	d="
M463.757324,644.114746 
	C467.139862,639.527405 471.465576,638.306396 475.503082,640.480530 
	C479.204132,642.473450 480.740845,647.349548 479.066589,651.787781 
	C477.586487,655.711365 473.650909,657.760864 469.399109,656.822449 
	C464.357483,655.709656 462.352966,651.439575 463.757324,644.114746 
z"/>
<path fill="#B7A7BF" opacity="1.000000" stroke="none" 
	d="
M441.295074,1074.675781 
	C433.267731,1075.221802 433.267517,1075.221802 433.267242,1067.558228 
	C433.266968,1060.241211 433.267181,1052.924072 433.267181,1045.699707 
	C440.780701,1042.748657 448.038971,1045.484009 450.383698,1051.971680 
	C454.079681,1062.198242 450.363708,1071.877319 441.295074,1074.675781 
z"/>
<path fill="#AE9FB6" opacity="1.000000" stroke="none" 
	d="
M477.274963,1056.726318 
	C478.087830,1058.686523 478.641998,1060.340454 479.366119,1062.501709 
	C474.591309,1062.501709 470.457886,1062.501709 466.299683,1062.501709 
	C466.938141,1055.379395 470.710968,1053.322510 477.274963,1056.726318 
z"/>
<path fill="#AE9FB6" opacity="1.000000" stroke="none" 
	d="
M182.241943,787.241943 
	C184.215576,784.441284 185.985413,781.937195 188.502472,778.375854 
	C188.502472,784.994202 188.502472,790.187256 188.502472,795.686523 
	C184.673752,795.686523 180.994019,795.686523 176.572998,795.686523 
	C178.599106,792.665771 180.318619,790.102112 182.241943,787.241943 
z"/>
<path fill="#FFAA0E" opacity="1.000000" stroke="none" 
	d="
M482.156738,523.468018 
	C486.133789,525.165894 487.717102,531.463074 484.851379,533.821716 
	C484.026764,534.500427 481.754395,533.420166 480.145813,533.146362 
	C480.691895,529.966492 481.237976,526.786621 482.156738,523.468018 
z"/>
<path fill="#FEA401" opacity="1.000000" stroke="none" 
	d="
M475.308350,521.407837 
	C475.048462,521.038025 475.122955,520.518494 475.616699,519.982788 
	C475.904907,520.397095 475.773834,520.827576 475.308350,521.407837 
z"/>
<path fill="#FFAA0E" opacity="1.000000" stroke="none" 
	d="
M459.460297,504.484436 
	C461.168701,505.712097 463.468231,507.010498 463.707581,508.616058 
	C464.028046,510.765320 462.752411,513.152527 462.162109,515.437500 
	C460.714935,514.912598 458.021301,514.377930 458.025330,513.864380 
	C458.049225,510.804230 458.696198,507.748932 459.460297,504.484436 
z"/>
<path fill="#FFAA0E" opacity="1.000000" stroke="none" 
	d="
M170.037537,510.459778 
	C170.476273,509.378235 170.818390,508.642548 171.484818,507.209412 
	C173.249390,512.979553 174.806931,518.072693 176.512527,523.650024 
	C172.832123,523.650024 169.643967,523.650024 166.061676,523.650024 
	C167.372192,519.310791 168.656570,515.058167 170.037537,510.459778 
z"/>
</svg>